<?xml version="1.0" standalone="no"?>
<!DOCTYPE svg PUBLIC "-//W3C//DTD SVG 20010904//EN"
 "http://www.w3.org/TR/2001/REC-SVG-20010904/DTD/svg10.dtd">
<svg version="1.0" xmlns="http://www.w3.org/2000/svg"
 width="700.000000pt" height="700.000000pt" viewBox="0 0 700.000000 700.000000"
 preserveAspectRatio="xMidYMid meet">
<metadata>
Created by potrace 1.11, written by Peter Selinger 2001-2013
</metadata>
<g transform="translate(0.000000,700.000000) scale(0.100000,-0.100000)"
fill="#000000" stroke="none">
<path d="M0 3500 l0 -3500 3500 0 3500 0 0 2953 0 2954 -134 -1 c-112 -1 -135
2 -138 14 -2 8 -3 255 -3 548 l1 532 -957 0 -957 0 -1 -537 c0 -296 0 -542 0
-548 -1 -8 -366 -13 -473 -6 -17 1 -18 34 -18 546 l0 545 -954 0 c-754 0 -955
-3 -958 -12 -2 -7 -3 -252 -3 -545 1 -530 1 -531 -19 -535 -12 -2 -122 -3
-246 -3 l-225 1 0 547 0 547 -957 0 -958 0 0 -3500z m1356 2951 c8 -1 11 -160
11 -543 l0 -543 2541 -3 c2023 -2 2542 -5 2543 -15 0 -6 1 -1089 2 -2405 2
-2120 0 -2392 -13 -2393 -22 -1 -5796 -1 -5850 0 l-45 1 1 2946 c1 2073 4
2948 11 2952 8 5 735 7 799 3z"/>
<path d="M3065 4370 c-1 -3 -3 -187 -3 -410 0 -223 -1 -417 -1 -432 l-1 -28
-435 0 c-341 0 -435 -3 -436 -12 0 -7 -1 -204 -2 -438 l-2 -425 -433 0 c-376
0 -433 -2 -436 -15 -3 -8 -4 -205 -4 -437 l0 -423 439 0 438 0 0 388 c0 213 0
410 0 437 l1 50 431 0 c256 0 433 3 436 9 4 5 6 202 6 438 l0 428 437 0 438 0
0 -417 c0 -230 1 -427 1 -438 1 -20 8 -20 427 -20 234 0 430 -3 436 -6 6 -4
10 -155 10 -438 l0 -431 438 0 438 0 0 434 c0 325 -2 435 -11 438 -7 2 -204 4
-439 3 l-427 0 0 400 c0 220 0 417 0 438 l-1 37 -435 0 c-407 0 -435 1 -436
18 0 9 -1 206 -1 437 l0 420 -435 0 c-239 0 -436 -2 -438 -5z"/>
</g>
</svg>
