<?xml version="1.0" encoding="UTF-8" standalone="no"?>
<!DOCTYPE svg PUBLIC "-//W3C//DTD SVG 1.1//EN" "http://www.w3.org/Graphics/SVG/1.1/DTD/svg11.dtd">
<svg width="100%" height="100%" viewBox="0 0 300 79" version="1.1" xmlns="http://www.w3.org/2000/svg" xmlns:xlink="http://www.w3.org/1999/xlink" xml:space="preserve" xmlns:serif="http://www.serif.com/" style="fill-rule:evenodd;clip-rule:evenodd;stroke-linejoin:round;stroke-miterlimit:2;">
    <g transform="matrix(1,0,0,1,0,-7.61719)">
        <g transform="matrix(-0.158813,0.158809,0.158809,0.158813,202.677,78.8072)">
            <rect x="-200.171" y="-82.911" width="166.092" height="165.189" style="fill:rgb(77,230,255);"/>
        </g>
        <g transform="matrix(-0.158813,-0.158809,-0.158809,0.158813,292.317,41.5346)">
            <rect x="-82.59" y="34.211" width="165.184" height="165.188" style="fill:rgb(77,230,255);"/>
        </g>
        <g transform="matrix(-0.158819,0.158803,0.158803,0.158819,225.018,69.4093)">
            <rect x="-100.246" y="-41.516" width="83.05" height="83.042" style="fill:rgb(113,160,255);"/>
        </g>
        <g transform="matrix(-0.15881,-0.158811,-0.158811,0.15881,266.083,15.3008)">
            <rect x="-82.598" y="34.214" width="165.194" height="165.187" style="fill:rgb(0,179,234);"/>
        </g>
        <g transform="matrix(-0.158816,-0.158805,-0.158805,0.158816,269.802,50.8595)">
            <rect x="-41.074" y="17.01" width="82.141" height="82.147" style="fill:rgb(113,160,255);"/>
        </g>
        <g transform="matrix(-0.158809,-0.158812,-0.158812,0.158809,256.686,37.642)">
            <rect x="-41.846" y="17.331" width="83.048" height="82.144" style="fill:rgb(55,91,239);"/>
        </g>
        <g transform="matrix(0.224592,0,0,0.224592,29.6285,19.6054)">
            <path d="M0,91.685C0,86.461 -0.932,81.384 -2.794,76.441C-4.659,71.514 -7.267,67.13 -10.621,63.307C-13.972,59.495 -17.936,56.459 -22.496,54.22C-27.065,51.985 -31.955,50.871 -37.17,50.871L-117.665,50.871L-117.665,132.205L-39.129,132.205C-33.537,132.205 -28.368,131.083 -23.615,128.857C-18.864,126.619 -14.769,123.584 -11.318,119.769C-7.871,115.951 -5.124,111.621 -3.074,106.769C-1.025,101.927 0,96.891 0,91.685M-117.665,-40.524L-117.665,38.852L-44.995,38.852C-39.593,38.852 -34.655,37.734 -30.184,35.499C-25.711,33.261 -21.848,30.329 -18.586,26.69C-15.328,23.063 -12.764,18.825 -10.9,13.98C-9.038,9.131 -8.103,4.191 -8.103,-0.839C-8.103,-6.241 -8.991,-11.319 -10.761,-16.069C-12.53,-20.821 -14.951,-25.015 -18.028,-28.648C-21.101,-32.279 -24.783,-35.17 -29.066,-37.315C-33.357,-39.453 -38.104,-40.524 -43.319,-40.524L-117.665,-40.524ZM14.256,93.632C14.256,100.905 12.86,107.659 10.066,113.894C7.268,120.144 3.449,125.588 -1.393,130.25C-6.24,134.911 -11.926,138.542 -18.443,141.144C-24.971,143.759 -31.86,145.062 -39.129,145.062L-131.921,145.062L-131.921,-53.377L-39.406,-53.377C-32.516,-53.377 -26.272,-51.887 -20.683,-48.911C-15.091,-45.931 -10.34,-42.07 -6.427,-37.315C-2.514,-32.561 0.515,-27.151 2.657,-21.102C4.795,-15.038 5.873,-8.947 5.873,-2.79C5.873,7.266 3.353,16.496 -1.676,24.875C-6.707,33.261 -13.691,39.414 -22.639,43.319C-11.276,46.674 -2.283,52.97 4.334,62.193C10.946,71.413 14.256,81.893 14.256,93.632" style="fill-rule:nonzero;"/>
        </g>
        <g transform="matrix(0.224592,0,0,0.224592,41.5549,7.61728)">
            <path d="M0,198.439L0,0L14.256,0L14.256,185.582L132.757,185.582L132.757,198.439L0,198.439Z" style="fill-rule:nonzero;"/>
        </g>
        <g transform="matrix(0.224592,0,0,0.224592,93.1548,10.5684)">
            <path d="M0,173.561C13.419,173.561 24.549,171.041 33.399,166.007C42.249,160.987 49.234,154.368 54.363,146.168C59.484,137.971 63.118,128.655 65.261,118.216C67.403,107.788 68.474,97.257 68.474,86.638L68.474,-13.14L82.731,-13.14L82.731,86.638C82.731,99.866 81.285,112.541 78.402,124.641C75.509,136.759 70.805,147.426 64.28,156.655C57.759,165.872 49.285,173.184 38.851,178.594C28.411,183.997 15.556,186.701 0.277,186.701C-15.559,186.701 -28.789,183.859 -39.408,178.17C-50.029,172.488 -58.552,164.942 -64.983,155.526C-71.413,146.124 -75.979,135.459 -78.678,123.528C-81.381,111.608 -82.731,99.312 -82.731,86.638L-82.731,-13.14L-68.479,-13.14L-68.479,86.638C-68.479,97.632 -67.407,108.34 -65.263,118.781C-63.123,129.209 -59.392,138.479 -54.086,146.585C-48.77,154.694 -41.74,161.214 -32.981,166.15C-24.227,171.095 -13.232,173.561 0,173.561" style="fill-rule:nonzero;"/>
        </g>
        <g transform="matrix(0.224592,0,0,0.224592,152.412,10.5048)">
            <path d="M0,172.725L0,185.582L-118.849,185.582L-122.2,175.582L-132.2,174.613L-132.2,-12.857L-2.512,-12.857L-2.512,-0.004L-117.942,-0.004L-117.942,77.975L-17.044,77.975L-17.044,90.275L-117.942,90.275L-117.942,172.725L0,172.725Z" style="fill-rule:nonzero;"/>
        </g>
        <g transform="matrix(0.224592,0,0,0.224592,9.93451,63.4564)">
            <path d="M0,-4.067C0,-16.638 2.367,-29.006 7.109,-41.196C11.843,-53.38 18.756,-64.294 27.848,-73.968C36.937,-83.634 47.958,-91.472 60.913,-97.465C73.868,-103.454 88.662,-106.454 105.293,-106.454C125.211,-106.454 142.465,-102.348 157.073,-94.13C171.667,-85.91 182.543,-75.028 189.698,-61.501L146.484,-30.754C144.549,-35.778 141.987,-39.93 138.796,-43.22C135.604,-46.512 132.078,-49.119 128.21,-51.057C124.337,-52.985 120.328,-54.342 116.17,-55.12C112.012,-55.881 107.999,-56.276 104.136,-56.276C96.011,-56.276 88.998,-54.678 83.104,-51.492C77.204,-48.296 72.375,-44.139 68.601,-39.016C64.832,-33.889 62.027,-28.089 60.189,-21.61C58.35,-15.131 57.433,-8.703 57.433,-2.321C57.433,4.831 58.491,11.698 60.624,18.268C62.749,24.844 65.845,30.651 69.904,35.674C73.968,40.706 78.944,44.716 84.848,47.714C90.738,50.708 97.362,52.208 104.715,52.208C108.578,52.208 112.543,51.775 116.607,50.904C120.664,50.031 124.583,48.574 128.352,46.552C132.125,44.521 135.507,41.908 138.508,38.726C141.502,35.526 143.872,31.615 145.611,26.972L191.732,54.525C188.638,62.071 183.947,68.839 177.664,74.828C171.379,80.822 164.222,85.853 156.201,89.914C148.172,93.974 139.565,97.072 130.387,99.201C121.201,101.32 112.258,102.387 103.554,102.387C88.274,102.387 74.301,99.341 61.64,93.251C48.972,87.152 38.045,79.089 28.862,69.035C19.673,58.98 12.568,47.567 7.543,34.802C2.512,22.044 0,9.086 0,-4.067" style="fill-rule:nonzero;"/>
        </g>
        <g transform="matrix(0.224592,0,0,0.224592,79.28,57.5052)">
            <path d="M0,50.38L-18.452,-14.063L-37.781,50.38L0,50.38ZM-44.516,-78.781L7.617,-78.781L79.666,129.161L21.674,129.161L9.082,88.445L-46.276,88.445L-58.577,129.161L-116.862,129.161L-44.516,-78.781Z" style="fill-rule:nonzero;"/>
        </g>
        <g transform="matrix(0.224592,0,0,0.224592,113.881,65.3344)">
            <path d="M0,-19.339L36.021,-19.339C39.537,-19.339 42.802,-21.286 45.832,-25.189C48.857,-29.1 50.373,-34.565 50.373,-41.598C50.373,-48.812 48.617,-54.343 45.099,-58.143C41.584,-61.95 38.071,-63.856 34.559,-63.856L0,-63.856L0,-19.339ZM-57.115,94.302L-57.115,-113.641L38.365,-113.641C48.515,-113.641 57.888,-111.543 66.482,-107.354C75.072,-103.149 82.443,-97.683 88.593,-90.945C94.744,-84.215 99.577,-76.497 103.088,-67.814C106.605,-59.12 108.364,-50.385 108.364,-41.598C108.364,-29.492 105.73,-18.209 100.458,-7.77C95.186,2.677 87.859,11.223 78.49,17.864L122.423,94.302L57.989,94.302L21.376,30.452L0,30.452L0,94.302L-57.115,94.302Z" style="fill-rule:nonzero;"/>
        </g>
        <g transform="matrix(0.224592,0,0,0.224592,178.738,50.9948)">
            <path d="M0,108.356L0,158.149L-148.199,158.149L-148.199,-49.793L-2.637,-49.793L-2.637,-0.008L-91.086,-0.008L-91.086,29.283L-15.527,29.283L-15.527,75.554L-91.086,75.554L-91.086,108.356L0,108.356Z" style="fill-rule:nonzero;"/>
        </g>
        <g transform="matrix(0.224592,0,0,0.224592,221.099,75.3324)">
            <path d="M0,-108.372L-59.746,-108.372L-59.746,49.785L-116.863,49.785L-116.863,-108.372L-176.902,-108.372L-176.902,-158.157L0,-158.157L0,-108.372Z" style="fill-rule:nonzero;"/>
        </g>
    </g>
</svg>
