<?xml version="1.0" encoding="UTF-8" standalone="no"?><!DOCTYPE svg PUBLIC "-//W3C//DTD SVG 1.1//EN" "http://www.w3.org/Graphics/SVG/1.1/DTD/svg11.dtd"><svg width="100%" height="100%" viewBox="0 0 206 60" version="1.1" xmlns="http://www.w3.org/2000/svg" xmlns:xlink="http://www.w3.org/1999/xlink" xml:space="preserve" xmlns:serif="http://www.serif.com/" style="fill-rule:evenodd;clip-rule:evenodd;stroke-linejoin:round;stroke-miterlimit:2;"><g><g><g><path d="M73.747,43.274c-1.682,-0 -3.072,-0.585 -4.169,-1.682c-1.097,-1.097 -1.682,-2.56 -1.682,-4.242c0,-1.682 0.585,-3.072 1.682,-4.242c1.097,-1.097 2.487,-1.682 4.169,-1.682c1.682,0 3.071,0.585 4.168,1.828l-1.024,0.951c-0.804,-0.951 -1.828,-1.463 -3.144,-1.463c-1.244,0 -2.267,0.439 -3.145,1.244c-0.878,0.804 -1.243,1.901 -1.243,3.291c-0,1.316 0.439,2.413 1.243,3.291c0.878,0.804 1.901,1.243 3.145,1.243c1.389,0 2.486,-0.585 3.51,-1.609l1.024,1.024c-0.512,0.585 -1.17,1.097 -1.975,1.463c-0.804,0.365 -1.609,0.585 -2.559,0.585Z" style="fill:#343434;fill-rule:nonzero;"/><path d="M80.987,31.719l-0,3.583l-0.073,1.097l0.073,0c0.219,-0.366 0.512,-0.658 1.024,-0.951c0.439,-0.292 0.951,-0.365 1.462,-0.365c0.951,-0 1.683,0.292 2.194,0.877c0.512,0.585 0.732,1.39 0.732,2.341l-0,4.753l-1.463,0l0,-4.534c0,-1.463 -0.658,-2.121 -1.901,-2.121c-0.585,0 -1.097,0.22 -1.463,0.731c-0.366,0.512 -0.585,1.024 -0.585,1.683l-0,4.241l-1.463,0l0,-11.262l1.463,-0.073Z" style="fill:#343434;fill-rule:nonzero;"/><path d="M89.543,42.981l-1.462,0l-0,-7.752l1.389,0l0,1.243l0.073,0c0.147,-0.439 0.439,-0.804 0.878,-1.024c0.439,-0.292 0.878,-0.438 1.316,-0.438c0.439,-0 0.805,0.073 1.097,0.219l-0.585,1.39c-0.219,-0.074 -0.438,-0.147 -0.804,-0.147c-0.512,0 -1.024,0.22 -1.39,0.658c-0.438,0.439 -0.585,0.951 -0.585,1.609l0,4.242l0.073,0Z" style="fill:#343434;fill-rule:nonzero;"/><path d="M94.005,36.18c0.731,-0.805 1.682,-1.17 2.852,-1.17c1.17,-0 2.121,0.365 2.852,1.17c0.731,0.804 1.097,1.755 1.097,2.925c0,1.17 -0.366,2.194 -1.097,2.925c-0.731,0.805 -1.682,1.171 -2.852,1.171c-1.17,-0 -2.121,-0.366 -2.852,-1.171c-0.732,-0.804 -1.097,-1.755 -1.097,-2.925c-0,-1.17 0.365,-2.121 1.097,-2.925Zm1.097,4.973c0.512,0.512 1.097,0.731 1.755,0.731c0.658,0 1.243,-0.292 1.755,-0.731c0.512,-0.512 0.731,-1.17 0.731,-2.048c0,-0.878 -0.219,-1.536 -0.731,-2.048c-0.512,-0.512 -1.097,-0.731 -1.755,-0.731c-0.658,0 -1.243,0.293 -1.755,0.731c-0.512,0.512 -0.732,1.17 -0.732,2.048c0,0.878 0.22,1.536 0.732,2.048Z" style="fill:#343434;fill-rule:nonzero;"/><path d="M102.049,42.981l0,-7.752l1.39,0l-0,1.097l0.073,0c0.219,-0.366 0.585,-0.658 1.024,-0.951c0.439,-0.292 0.877,-0.365 1.389,-0.365c1.17,-0 2.048,0.512 2.414,1.462c0.658,-0.95 1.536,-1.462 2.706,-1.462c0.95,-0 1.609,0.292 2.047,0.877c0.439,0.585 0.732,1.39 0.732,2.34l-0,4.754l-1.463,0l0,-4.534c0,-0.805 -0.146,-1.317 -0.439,-1.682c-0.292,-0.293 -0.731,-0.512 -1.316,-0.512c-0.585,-0 -1.024,0.219 -1.39,0.731c-0.365,0.512 -0.585,1.024 -0.585,1.682l0,4.242l-1.462,0l-0,-4.534c-0,-0.805 -0.147,-1.317 -0.439,-1.682c-0.293,-0.293 -0.732,-0.512 -1.317,-0.512c-0.585,-0 -1.023,0.219 -1.389,0.731c-0.366,0.512 -0.585,1.024 -0.585,1.682l-0,4.242l-1.39,0.146Z" style="fill:#343434;fill-rule:nonzero;"/><path d="M118.943,43.274c-1.17,-0 -2.121,-0.366 -2.852,-1.17c-0.731,-0.805 -1.097,-1.756 -1.097,-2.926c-0,-1.097 0.366,-2.121 1.097,-2.925c0.731,-0.805 1.609,-1.243 2.706,-1.243c1.17,-0 2.047,0.365 2.779,1.097c0.658,0.731 1.024,1.755 1.024,2.998l-0,0.293l-6.143,-0c0.073,0.804 0.292,1.389 0.804,1.828c0.512,0.439 1.024,0.658 1.682,0.658c1.024,0 1.755,-0.439 2.121,-1.316l1.316,0.512c-0.219,0.585 -0.658,1.097 -1.243,1.535c-0.585,0.439 -1.316,0.659 -2.194,0.659Zm2.121,-5.047c-0,-0.438 -0.22,-0.877 -0.585,-1.243c-0.366,-0.439 -0.951,-0.585 -1.682,-0.585c-0.512,0 -1.024,0.146 -1.39,0.512c-0.365,0.366 -0.658,0.805 -0.804,1.39l4.461,-0l-0,-0.074Z" style="fill:#343434;fill-rule:nonzero;"/><path d="M140.152,31.719l-2.999,11.262l-1.462,0l-2.414,-7.459l-0.073,-0l-2.413,7.459l-1.463,0l-3.145,-11.262l1.536,-0l2.413,8.922l0.074,-0l2.413,-7.387l1.389,0l2.414,7.387l0.073,-0l2.267,-8.922l1.39,-0Z" style="fill:#343434;fill-rule:nonzero;"/><path d="M143.955,43.274c-1.171,-0 -2.121,-0.366 -2.853,-1.17c-0.731,-0.805 -1.097,-1.756 -1.097,-2.926c0,-1.097 0.366,-2.121 1.097,-2.925c0.732,-0.805 1.609,-1.243 2.706,-1.243c1.17,-0 2.048,0.365 2.779,1.097c0.659,0.731 1.024,1.755 1.024,2.998l0,0.293l-6.143,-0c0.073,0.804 0.293,1.389 0.805,1.828c0.511,0.439 1.023,0.658 1.682,0.658c1.023,0 1.755,-0.439 2.12,-1.316l1.317,0.512c-0.22,0.585 -0.658,1.097 -1.243,1.535c-0.659,0.439 -1.39,0.659 -2.194,0.659Zm2.047,-5.047c0,-0.438 -0.219,-0.877 -0.585,-1.243c-0.365,-0.439 -0.951,-0.585 -1.682,-0.585c-0.512,0 -1.024,0.146 -1.389,0.512c-0.366,0.366 -0.659,0.805 -0.805,1.39l4.461,-0l0,-0.074Z" style="fill:#343434;fill-rule:nonzero;"/><path d="M152.95,43.274c-0.585,-0 -1.097,-0.147 -1.609,-0.366c-0.439,-0.219 -0.804,-0.585 -1.024,-0.951l-0.073,0l0,1.097l-1.39,0l0,-11.262l1.463,-0l0,3.583l-0.073,1.097l0.073,0c0.22,-0.365 0.585,-0.731 1.024,-0.95c0.439,-0.22 1.024,-0.366 1.609,-0.366c1.024,-0 1.828,0.366 2.56,1.17c0.731,0.804 1.097,1.755 1.097,2.925c-0,1.17 -0.366,2.121 -1.097,2.926c-0.659,0.658 -1.536,1.097 -2.56,1.097Zm-0.219,-1.317c0.658,0 1.243,-0.292 1.755,-0.731c0.512,-0.512 0.731,-1.17 0.731,-2.048c0,-0.877 -0.219,-1.536 -0.731,-2.048c-0.512,-0.511 -1.097,-0.731 -1.755,-0.731c-0.659,0 -1.244,0.22 -1.756,0.731c-0.512,0.512 -0.731,1.171 -0.731,2.048c0,0.878 0.219,1.536 0.731,2.048c0.512,0.439 1.097,0.731 1.756,0.731Z" style="fill:#343434;fill-rule:nonzero;"/><path d="M164.432,43.274c-0.805,-0 -1.609,-0.293 -2.414,-0.805c-0.804,-0.512 -1.316,-1.316 -1.535,-2.267l1.316,-0.512c0.146,0.585 0.512,1.17 0.951,1.536c0.439,0.366 1.024,0.658 1.682,0.658c0.658,0 1.17,-0.146 1.609,-0.512c0.439,-0.365 0.658,-0.804 0.658,-1.316c-0,-0.658 -0.219,-1.097 -0.658,-1.463c-0.439,-0.366 -1.17,-0.658 -2.121,-0.951c-1.024,-0.292 -1.755,-0.731 -2.267,-1.243c-0.512,-0.512 -0.805,-1.17 -0.805,-1.901c0,-0.805 0.293,-1.536 0.951,-2.121c0.658,-0.585 1.463,-0.878 2.487,-0.878c0.95,0 1.755,0.22 2.34,0.732c0.585,0.511 0.951,1.023 1.17,1.535l-1.316,0.585c-0.074,-0.365 -0.293,-0.658 -0.732,-1.023c-0.365,-0.293 -0.877,-0.439 -1.462,-0.439c-0.585,-0 -1.024,0.146 -1.39,0.439c-0.366,0.292 -0.585,0.731 -0.585,1.17c-0,0.438 0.146,0.804 0.512,1.097c0.366,0.292 0.878,0.585 1.609,0.804c0.585,0.146 1.024,0.366 1.389,0.512c0.366,0.146 0.732,0.366 1.097,0.658c0.366,0.293 0.659,0.658 0.878,1.024c0.219,0.439 0.293,0.878 0.293,1.463c-0,0.585 -0.147,1.024 -0.366,1.462c-0.22,0.439 -0.512,0.805 -0.878,1.024c-0.365,0.22 -0.804,0.439 -1.243,0.585c-0.293,0.074 -0.731,0.147 -1.17,0.147Z" style="fill:#343434;fill-rule:nonzero;"/><path d="M172.696,43.127c-0.805,0 -1.39,-0.219 -1.828,-0.658c-0.439,-0.439 -0.659,-1.024 -0.659,-1.828l0,-4.022l-1.389,-0l-0,-1.317l1.389,0l0,-2.34l1.463,-0l0,2.34l1.901,0l0,1.317l-1.901,-0l0,3.949c0,0.804 0.366,1.243 1.024,1.243c0.292,0 0.512,-0.073 0.658,-0.146l0.512,1.243c-0.366,0.146 -0.731,0.219 -1.17,0.219Z" style="fill:#343434;fill-rule:nonzero;"/><path d="M175.475,36.18c0.731,-0.805 1.682,-1.17 2.852,-1.17c1.17,-0 2.121,0.365 2.852,1.17c0.732,0.804 1.097,1.755 1.097,2.925c0,1.17 -0.365,2.194 -1.097,2.925c-0.731,0.805 -1.682,1.171 -2.852,1.171c-1.17,-0 -2.121,-0.366 -2.852,-1.171c-0.731,-0.804 -1.097,-1.755 -1.097,-2.925c-0,-1.17 0.366,-2.121 1.097,-2.925Zm1.097,4.973c0.512,0.512 1.097,0.731 1.755,0.731c0.658,0 1.243,-0.292 1.755,-0.731c0.512,-0.512 0.732,-1.17 0.732,-2.048c-0,-0.878 -0.22,-1.536 -0.732,-2.048c-0.512,-0.512 -1.097,-0.731 -1.755,-0.731c-0.658,0 -1.243,0.293 -1.755,0.731c-0.512,0.512 -0.731,1.17 -0.731,2.048c-0,0.878 0.219,1.536 0.731,2.048Z" style="fill:#343434;fill-rule:nonzero;"/><path d="M184.982,42.981l-1.462,0l-0,-7.752l1.389,0l0,1.243l0.073,0c0.147,-0.439 0.439,-0.804 0.878,-1.024c0.439,-0.292 0.877,-0.438 1.316,-0.438c0.439,-0 0.805,0.073 1.097,0.219l-0.585,1.39c-0.219,-0.074 -0.439,-0.147 -0.804,-0.147c-0.512,0 -1.024,0.22 -1.39,0.658c-0.439,0.439 -0.585,0.951 -0.585,1.609l0,4.242l0.073,0Z" style="fill:#343434;fill-rule:nonzero;"/><path d="M192.222,43.274c-1.17,-0 -2.12,-0.366 -2.852,-1.17c-0.731,-0.805 -1.097,-1.756 -1.097,-2.926c0,-1.097 0.366,-2.121 1.097,-2.925c0.732,-0.805 1.609,-1.243 2.706,-1.243c1.17,-0 2.048,0.365 2.779,1.097c0.658,0.731 1.024,1.755 1.024,2.998l0,0.293l-6.143,-0c0.073,0.804 0.292,1.389 0.804,1.828c0.512,0.439 1.024,0.658 1.682,0.658c1.024,0 1.756,-0.439 2.121,-1.316l1.317,0.512c-0.22,0.585 -0.658,1.097 -1.244,1.535c-0.585,0.439 -1.316,0.659 -2.194,0.659Zm2.121,-5.047c0,-0.438 -0.219,-0.877 -0.585,-1.243c-0.365,-0.439 -0.95,-0.585 -1.682,-0.585c-0.512,0 -1.024,0.146 -1.389,0.512c-0.366,0.366 -0.659,0.805 -0.805,1.39l4.461,-0l0,-0.074Z" style="fill:#343434;fill-rule:nonzero;"/></g><g><path d="M68.701,25.429l3.217,-8.556l1.244,-0l3.218,8.556l-1.171,0l-0.804,-2.34l-3.584,-0l-0.804,2.34l-1.316,0Zm2.486,-3.291l2.852,0l-1.389,-3.876l-0.073,0l-1.39,3.876Z" style="fill:#343434;fill-rule:nonzero;"/><path d="M78.354,25.429l-2.34,-5.85l1.17,-0l1.682,4.534l1.755,-4.534l1.17,-0l-2.413,5.85l-1.024,0Z" style="fill:#343434;fill-rule:nonzero;"/><path d="M84.278,25.649c-0.585,-0 -1.17,-0.147 -1.536,-0.512c-0.439,-0.366 -0.658,-0.805 -0.658,-1.39c-0,-0.658 0.219,-1.097 0.731,-1.536c0.512,-0.365 1.097,-0.512 1.829,-0.512c0.658,0 1.17,0.147 1.609,0.366l-0,-0.146c-0,-0.439 -0.147,-0.805 -0.439,-1.024c-0.293,-0.293 -0.658,-0.366 -1.097,-0.366c-0.293,0 -0.585,0.073 -0.878,0.22c-0.292,0.146 -0.439,0.365 -0.512,0.585l-1.024,-0.439c0.147,-0.366 0.439,-0.658 0.805,-0.951c0.365,-0.292 0.951,-0.439 1.609,-0.439c0.731,0 1.389,0.22 1.828,0.659c0.512,0.438 0.731,1.023 0.731,1.828l0,3.51l-1.023,0l-0,-0.804l-0.074,-0c-0.365,0.585 -1.023,0.951 -1.901,0.951Zm0.219,-1.024c0.439,-0 0.878,-0.147 1.244,-0.512c0.365,-0.366 0.585,-0.732 0.585,-1.17c-0.293,-0.293 -0.805,-0.366 -1.39,-0.366c-0.512,-0 -0.951,0.146 -1.243,0.366c-0.293,0.219 -0.439,0.512 -0.439,0.804c0,0.293 0.146,0.512 0.366,0.658c0.292,0.147 0.585,0.22 0.877,0.22Z" style="fill:#343434;fill-rule:nonzero;"/><path d="M89.763,18.116c-0.146,0.146 -0.366,0.219 -0.585,0.219c-0.22,0 -0.366,-0.073 -0.585,-0.219c-0.146,-0.146 -0.22,-0.366 -0.22,-0.585c0,-0.22 0.074,-0.366 0.22,-0.585c0.146,-0.147 0.365,-0.22 0.585,-0.22c0.219,0 0.365,0.073 0.585,0.22c0.146,0.146 0.219,0.365 0.219,0.585c0,0.219 -0.073,0.439 -0.219,0.585Zm-0,7.313l-1.097,0l-0,-5.85l1.097,-0l-0,5.85Z" style="fill:#343434;fill-rule:nonzero;"/><rect x="91.226" y="16.946" width="1.097" height="8.483" style="fill:#343434;fill-rule:nonzero;"/><path d="M95.394,25.649c-0.585,-0 -1.17,-0.147 -1.536,-0.512c-0.438,-0.366 -0.658,-0.805 -0.658,-1.39c0,-0.658 0.22,-1.097 0.731,-1.536c0.512,-0.365 1.097,-0.512 1.829,-0.512c0.658,0 1.17,0.147 1.609,0.366l-0,-0.146c-0,-0.439 -0.147,-0.805 -0.439,-1.024c-0.293,-0.293 -0.658,-0.366 -1.097,-0.366c-0.293,0 -0.585,0.073 -0.878,0.22c-0.292,0.146 -0.438,0.365 -0.512,0.585l-1.023,-0.439c0.146,-0.366 0.438,-0.658 0.804,-0.951c0.366,-0.292 0.951,-0.439 1.609,-0.439c0.731,0 1.389,0.22 1.828,0.659c0.512,0.438 0.732,1.023 0.732,1.828l-0,3.51l-1.024,0l-0,-0.804l-0.073,-0c-0.366,0.585 -1.024,0.951 -1.902,0.951Zm0.22,-1.024c0.438,-0 0.877,-0.147 1.243,-0.512c0.365,-0.366 0.585,-0.732 0.585,-1.17c-0.293,-0.293 -0.805,-0.366 -1.39,-0.366c-0.512,-0 -0.95,0.146 -1.243,0.366c-0.292,0.219 -0.439,0.512 -0.439,0.804c0,0.293 0.147,0.512 0.366,0.658c0.292,0.147 0.585,0.22 0.878,0.22Z" style="fill:#343434;fill-rule:nonzero;"/><path d="M102.781,25.649c-0.439,-0 -0.878,-0.074 -1.171,-0.293c-0.365,-0.219 -0.585,-0.439 -0.804,-0.731l-0.073,-0l-0,0.804l-1.024,0l0,-8.483l1.097,-0l0,2.706l-0.073,0.804l0.073,0c0.146,-0.292 0.439,-0.512 0.804,-0.731c0.366,-0.22 0.732,-0.293 1.171,-0.293c0.731,0 1.389,0.293 1.974,0.878c0.585,0.585 0.805,1.316 0.805,2.194c-0,0.877 -0.293,1.609 -0.805,2.194c-0.585,0.658 -1.243,0.951 -1.974,0.951Zm-0.147,-1.024c0.512,-0 0.951,-0.22 1.317,-0.585c0.365,-0.366 0.585,-0.878 0.585,-1.536c-0,-0.658 -0.146,-1.17 -0.585,-1.536c-0.366,-0.366 -0.805,-0.585 -1.317,-0.585c-0.512,-0 -0.95,0.219 -1.316,0.585c-0.366,0.366 -0.512,0.878 -0.512,1.536c0,0.658 0.146,1.17 0.512,1.536c0.292,0.438 0.731,0.585 1.316,0.585Z" style="fill:#343434;fill-rule:nonzero;"/><rect x="106.51" y="16.946" width="1.097" height="8.483" style="fill:#343434;fill-rule:nonzero;"/><path d="M111.557,25.649c-0.878,-0 -1.609,-0.293 -2.121,-0.878c-0.585,-0.585 -0.805,-1.316 -0.805,-2.267c0,-0.878 0.293,-1.609 0.805,-2.194c0.512,-0.585 1.243,-0.951 2.047,-0.951c0.878,0 1.536,0.293 2.121,0.878c0.512,0.585 0.805,1.316 0.805,2.267l-0,0.219l-4.608,0c0,0.585 0.22,1.024 0.585,1.39c0.366,0.365 0.805,0.512 1.244,0.512c0.804,-0 1.316,-0.366 1.609,-1.024l0.95,0.439c-0.219,0.438 -0.512,0.804 -0.95,1.17c-0.512,0.292 -1.097,0.439 -1.682,0.439Zm1.535,-3.803c0,-0.366 -0.146,-0.659 -0.438,-0.951c-0.293,-0.293 -0.732,-0.439 -1.244,-0.439c-0.438,0 -0.731,0.146 -1.024,0.366c-0.292,0.292 -0.511,0.585 -0.585,1.024l3.291,-0Z" style="fill:#343434;fill-rule:nonzero;"/><path d="M119.089,18.116c-0.146,0.146 -0.365,0.219 -0.585,0.219c-0.219,0 -0.365,-0.073 -0.585,-0.219c-0.146,-0.146 -0.219,-0.366 -0.219,-0.585c-0,-0.22 0.073,-0.366 0.219,-0.585c0.146,-0.147 0.366,-0.22 0.585,-0.22c0.22,0 0.366,0.073 0.585,0.22c0.147,0.146 0.22,0.365 0.22,0.585c-0,0.219 -0.073,0.439 -0.22,0.585Zm0,7.313l-1.097,0l0,-5.85l1.097,-0l0,5.85Z" style="fill:#343434;fill-rule:nonzero;"/><path d="M121.576,19.579l-0,0.804l0.073,-0c0.146,-0.293 0.439,-0.512 0.731,-0.731c0.366,-0.22 0.732,-0.293 1.097,-0.293c0.732,0 1.244,0.22 1.682,0.658c0.366,0.439 0.585,1.024 0.585,1.829l0,3.583l-1.097,0l0,-3.437c0,-1.097 -0.512,-1.609 -1.462,-1.609c-0.439,-0 -0.805,0.146 -1.097,0.512c-0.293,0.366 -0.439,0.804 -0.439,1.243l-0,3.218l-1.097,0l-0,-5.851l1.024,0.074Z" style="fill:#343434;fill-rule:nonzero;"/><path d="M132.18,25.575c-0.585,0 -1.097,-0.146 -1.389,-0.511c-0.293,-0.293 -0.512,-0.805 -0.512,-1.39l-0,-3.072l-1.024,0l-0,-1.023l1.024,-0l-0,-1.829l1.097,0l-0,1.829l1.462,-0l0,1.023l-1.462,0l-0,2.999c-0,0.658 0.292,0.951 0.804,0.951c0.22,-0 0.366,-0 0.512,-0.074l0.366,0.951c-0.22,0.073 -0.512,0.146 -0.878,0.146Z" style="fill:#343434;fill-rule:nonzero;"/><path d="M135.032,16.946l0,2.706l-0.073,0.804l0.073,0c0.147,-0.292 0.439,-0.512 0.732,-0.731c0.365,-0.22 0.731,-0.293 1.097,-0.293c0.731,0 1.243,0.22 1.682,0.658c0.365,0.439 0.585,1.024 0.585,1.829l-0,3.583l-1.097,0l-0,-3.437c-0,-1.097 -0.512,-1.609 -1.463,-1.609c-0.439,0 -0.804,0.146 -1.097,0.512c-0.292,0.366 -0.439,0.805 -0.439,1.243l0,3.218l-1.097,0l0,-8.483l1.097,-0Z" style="fill:#343434;fill-rule:nonzero;"/><path d="M143.077,25.649c-0.878,-0 -1.609,-0.293 -2.121,-0.878c-0.585,-0.585 -0.804,-1.316 -0.804,-2.267c-0,-0.878 0.292,-1.609 0.804,-2.194c0.512,-0.585 1.243,-0.951 2.048,-0.951c0.877,0 1.536,0.293 2.121,0.878c0.512,0.585 0.804,1.316 0.804,2.267l0,0.219l-4.607,0c-0,0.585 0.219,1.024 0.585,1.39c0.366,0.365 0.804,0.512 1.243,0.512c0.805,-0 1.316,-0.366 1.609,-1.024l0.951,0.439c-0.22,0.438 -0.512,0.804 -0.951,1.17c-0.512,0.292 -1.097,0.439 -1.682,0.439Zm1.536,-3.803c-0,-0.366 -0.147,-0.659 -0.439,-0.951c-0.293,-0.293 -0.731,-0.439 -1.243,-0.439c-0.439,0 -0.732,0.146 -1.024,0.366c-0.293,0.292 -0.512,0.585 -0.585,1.024l3.291,-0Z" style="fill:#343434;fill-rule:nonzero;"/></g></g><g><g><g><clipPath id="_clip1"><path d="M10.121,9.706l-0,37.371c-0,1.755 1.463,3.217 3.218,3.217l40.589,0c1.755,0 3.218,-1.462 3.218,-3.217l-0,-37.371l-47.025,-0Zm28.814,8.556l-10.677,0c-1.17,0 -2.121,-0.951 -2.121,-2.121c0,-1.17 0.951,-2.121 2.121,-2.121l10.677,0c1.17,0 2.121,0.951 2.121,2.121c0,1.17 -0.951,2.121 -2.121,2.121Z"/></clipPath><g clip-path="url(#_clip1)"><rect x="10.121" y="9.706" width="47.025" height="40.589" style="fill:#eeedee;fill-rule:nonzero;"/></g></g></g><g><g><clipPath id="_clip2"><path d="M10.121,9.706l-0,37.371c-0,1.755 1.463,3.217 3.218,3.217l40.589,0c1.755,0 3.218,-1.462 3.218,-3.217l-0,-37.371l-47.025,-0Zm28.814,8.556l-10.677,0c-1.17,0 -2.121,-0.951 -2.121,-2.121c0,-1.17 0.951,-2.121 2.121,-2.121l10.677,0c1.17,0 2.121,0.951 2.121,2.121c0,1.17 -0.951,2.121 -2.121,2.121Z"/></clipPath><g clip-path="url(#_clip2)"><path d="M38.935,14.02l-10.677,0c-1.17,0 -2.121,0.951 -2.121,2.121c0,1.17 0.951,2.121 2.121,2.121l10.677,0c1.17,0 2.121,-0.951 2.121,-2.121c0,-1.17 -0.951,-2.121 -2.121,-2.121Z" style="fill:#fff;fill-rule:nonzero;"/></g></g></g><g><g><g><clipPath id="_clip3"><path d="M10.121,9.706l-0,37.371c-0,1.755 1.463,3.217 3.218,3.217l40.589,0c1.755,0 3.218,-1.462 3.218,-3.217l-0,-37.371l-47.025,-0Zm28.814,8.556l-10.677,0c-1.17,0 -2.121,-0.951 -2.121,-2.121c0,-1.17 0.951,-2.121 2.121,-2.121l10.677,0c1.17,0 2.121,0.951 2.121,2.121c0,1.17 -0.951,2.121 -2.121,2.121Z"/></clipPath><g clip-path="url(#_clip3)"><g><g><clipPath id="_clip4"><path d="M13.356,45.701c0.795,-11.193 10.528,-19.634 21.721,-18.839c11.193,0.796 19.634,10.529 18.839,21.722c-0.795,11.193 -10.529,19.634 -21.721,18.839c-11.193,-0.796 -19.635,-10.529 -18.839,-21.722Z"/></clipPath><g clip-path="url(#_clip4)"><path d="M16.557,26.819l-0,24.938l9.068,0l7.972,-13.822l20.331,-0l-0,-11.043l-37.371,-0l-0,-0.073Zm-0,-0l-0,24.938l9.068,0l7.972,-13.822l20.331,-0l-0,-11.043l-37.371,-0l-0,-0.073Z" style="fill:#dc4637;fill-rule:nonzero;"/></g></g><g><clipPath id="_clip5"><path d="M13.356,45.701c0.795,-11.193 10.528,-19.634 21.721,-18.839c11.193,0.796 19.634,10.529 18.839,21.722c-0.795,11.193 -10.529,19.634 -21.721,18.839c-11.193,-0.796 -19.635,-10.529 -18.839,-21.722Z"/></clipPath><g clip-path="url(#_clip5)"><path d="M13.339,67.408l19.307,-0l8.922,-8.923l0,-6.728l-15.943,0l-12.286,-21.135l-0,36.786Zm-0,-0l19.307,-0l8.922,-8.923l0,-6.728l-15.943,0l-12.286,-21.135l-0,36.786Z" style="fill:#0f9d58;fill-rule:nonzero;"/></g></g><g><clipPath id="_clip6"><path d="M13.356,45.701c0.795,-11.193 10.528,-19.634 21.721,-18.839c11.193,0.796 19.634,10.529 18.839,21.722c-0.795,11.193 -10.529,19.634 -21.721,18.839c-11.193,-0.796 -19.635,-10.529 -18.839,-21.722Z"/></clipPath><g clip-path="url(#_clip6)"><path d="M33.597,37.935l7.971,13.822l-8.995,15.651l21.282,-0l-0,-29.546l-20.258,-0l-0,0.073Zm-0,-0l7.971,13.822l-8.995,15.651l21.282,-0l-0,-29.546l-20.258,-0l-0,0.073Z" style="fill:#ffce41;fill-rule:nonzero;"/></g></g><g><g><clipPath id="_clip7"><path d="M13.356,45.701c0.795,-11.193 10.528,-19.634 21.721,-18.839c11.193,0.796 19.634,10.529 18.839,21.722c-0.795,11.193 -10.529,19.634 -21.721,18.839c-11.193,-0.796 -19.635,-10.529 -18.839,-21.722Z"/></clipPath><g clip-path="url(#_clip7)"><circle cx="33.597" cy="47.15" r="9.215" style="fill:#f2f2f2;"/><circle cx="33.597" cy="47.15" r="7.386" style="fill:#557ebf;"/></g></g></g></g><g><g><clipPath id="_clip8"><path d="M10.121,9.706l-0,37.371c-0,1.755 1.463,3.217 3.218,3.217l40.589,0c1.755,0 3.218,-1.462 3.218,-3.217l-0,-37.371l-47.025,-0Zm28.814,8.556l-10.677,0c-1.17,0 -2.121,-0.951 -2.121,-2.121c0,-1.17 0.951,-2.121 2.121,-2.121l10.677,0c1.17,0 2.121,0.951 2.121,2.121c0,1.17 -0.951,2.121 -2.121,2.121Z"/></clipPath><g clip-path="url(#_clip8)"><rect x="10.121" y="9.706" width="47.025" height="20.331" style="fill:#212121;fill-opacity:0.05;fill-rule:nonzero;"/></g></g></g><rect x="10.121" y="29.744" width="47.025" height="0.293" style="fill:#212121;fill-opacity:0.02;fill-rule:nonzero;"/><rect x="10.121" y="30.037" width="47.025" height="0.293" style="fill:#fff;fill-opacity:0.05;fill-rule:nonzero;"/><path d="M38.935,18.262l-10.677,0c-1.097,0 -2.048,-0.877 -2.121,-1.974l0,0.146c0,1.17 0.951,2.121 2.121,2.121l10.677,-0c1.17,-0 2.121,-0.951 2.121,-2.121l0,-0.146c-0.073,1.097 -0.951,1.974 -2.121,1.974Zm-28.814,-8.556l-0,0.292l47.025,0l-0,-0.292l-47.025,-0Z" style="fill:#212121;fill-opacity:0.02;fill-rule:nonzero;"/><path d="M28.258,14.02l10.677,0c1.097,0 2.048,0.878 2.121,1.975l0,-0.146c0,-1.17 -0.951,-2.121 -2.121,-2.121l-10.677,-0c-1.17,-0 -2.121,0.951 -2.121,2.121l0,0.146c0.073,-1.097 1.024,-1.975 2.121,-1.975Zm25.67,36.055l-40.589,0c-1.755,0 -3.218,-1.463 -3.218,-3.218l-0,0.293c-0,1.755 1.463,3.218 3.218,3.218l40.589,-0c1.755,-0 3.218,-1.463 3.218,-3.218l-0,-0.293c-0,1.755 -1.463,3.218 -3.218,3.218Z" style="fill:#231f20;fill-opacity:0.1;fill-rule:nonzero;"/><path d="M10.121,9.706l-0,37.371c-0,1.755 1.463,3.217 3.218,3.217l40.589,0c1.755,0 3.218,-1.462 3.218,-3.217l-0,-37.371l-47.025,-0Zm28.814,8.556l-10.677,0c-1.17,0 -2.121,-0.951 -2.121,-2.121c0,-1.17 0.951,-2.121 2.121,-2.121l10.677,0c1.17,0 2.121,0.951 2.121,2.121c0,1.17 -0.951,2.121 -2.121,2.121Z" style="fill:url(#_Radial9);fill-rule:nonzero;"/><rect x="8" y="4.367" width="51.266" height="51.266" style="fill:none;fill-rule:nonzero;"/></g></g></g></g></g></g><defs><radialGradient id="_Radial9" cx="0" cy="0" r="1" gradientUnits="userSpaceOnUse" gradientTransform="matrix(60.7803,0,0,60.7803,9.97929,9.56534)"><stop offset="0" style="stop-color:#fff;stop-opacity:0.1"/><stop offset="1" style="stop-color:#fff;stop-opacity:0"/></radialGradient></defs></svg>