<svg id="visual" viewBox="0 0 900 675" width="900" height="675" xmlns="http://www.w3.org/2000/svg" xmlns:xlink="http://www.w3.org/1999/xlink" version="1.1"><path d="M0 28L30 30.3C60 32.7 120 37.3 180 40.7C240 44 300 46 360 43.7C420 41.3 480 34.7 540 31.3C600 28 660 28 720 30.3C780 32.7 840 37.3 870 39.7L900 42L900 0L870 0C840 0 780 0 720 0C660 0 600 0 540 0C480 0 420 0 360 0C300 0 240 0 180 0C120 0 60 0 30 0L0 0Z" fill="#000428"></path><path d="M0 197L30 202.7C60 208.3 120 219.7 180 218.5C240 217.3 300 203.7 360 196.8C420 190 480 190 540 182.2C600 174.3 660 158.7 720 163.2C780 167.7 840 192.3 870 204.7L900 217L900 40L870 37.7C840 35.3 780 30.7 720 28.3C660 26 600 26 540 29.3C480 32.7 420 39.3 360 41.7C300 44 240 42 180 38.7C120 35.3 60 30.7 30 28.3L0 26Z" fill="#021134"></path><path d="M0 224L30 231.8C60 239.7 120 255.3 180 254.2C240 253 300 235 360 231.7C420 228.3 480 239.7 540 235.2C600 230.7 660 210.3 720 212.5C780 214.7 840 239.3 870 251.7L900 264L900 215L870 202.7C840 190.3 780 165.7 720 161.2C660 156.7 600 172.3 540 180.2C480 188 420 188 360 194.8C300 201.7 240 215.3 180 216.5C120 217.7 60 206.3 30 200.7L0 195Z" fill="#031a40"></path><path d="M0 264L30 270.8C60 277.7 120 291.3 180 290.3C240 289.3 300 273.7 360 269.2C420 264.7 480 271.3 540 266.8C600 262.3 660 246.7 720 247.8C780 249 840 267 870 276L900 285L900 262L870 249.7C840 237.3 780 212.7 720 210.5C660 208.3 600 228.7 540 233.2C480 237.7 420 226.3 360 229.7C300 233 240 251 180 252.2C120 253.3 60 237.7 30 229.8L0 222Z" fill="#04224d"></path><path d="M0 345L30 354C60 363 120 381 180 382.2C240 383.3 300 367.7 360 362.2C420 356.7 480 361.3 540 355.7C600 350 660 334 720 337.3C780 340.7 840 363.3 870 374.7L900 386L900 283L870 274C840 265 780 247 720 245.8C660 244.7 600 260.3 540 264.8C480 269.3 420 262.7 360 267.2C300 271.7 240 287.3 180 288.3C120 289.3 60 275.7 30 268.8L0 262Z" fill="#062a5a"></path><path d="M0 399L30 408C60 417 120 435 180 435C240 435 300 417 360 418.2C420 419.3 480 439.7 540 438.7C600 437.7 660 415.3 720 410.8C780 406.3 840 419.7 870 426.3L900 433L900 384L870 372.7C840 361.3 780 338.7 720 335.3C660 332 600 348 540 353.7C480 359.3 420 354.7 360 360.2C300 365.7 240 381.3 180 380.2C120 379 60 361 30 352L0 343Z" fill="#073368"></path><path d="M0 453L30 463.2C60 473.3 120 493.7 180 491.5C240 489.3 300 464.7 360 460.2C420 455.7 480 471.3 540 468C600 464.7 660 442.3 720 441.2C780 440 840 460 870 470L900 480L900 431L870 424.3C840 417.7 780 404.3 720 408.8C660 413.3 600 435.7 540 436.7C480 437.7 420 417.3 360 416.2C300 415 240 433 180 433C120 433 60 415 30 406L0 397Z" fill="#073b75"></path><path d="M0 642L30 636.5C60 631 120 620 180 613.3C240 606.7 300 604.3 360 603.2C420 602 480 602 540 600.8C600 599.7 660 597.3 720 604C780 610.7 840 626.3 870 634.2L900 642L900 478L870 468C840 458 780 438 720 439.2C660 440.3 600 462.7 540 466C480 469.3 420 453.7 360 458.2C300 462.7 240 487.3 180 489.5C120 491.7 60 471.3 30 461.2L0 451Z" fill="#054584"></path><path d="M0 676L30 676C60 676 120 676 180 676C240 676 300 676 360 676C420 676 480 676 540 676C600 676 660 676 720 676C780 676 840 676 870 676L900 676L900 640L870 632.2C840 624.3 780 608.7 720 602C660 595.3 600 597.7 540 598.8C480 600 420 600 360 601.2C300 602.3 240 604.7 180 611.3C120 618 60 629 30 634.5L0 640Z" fill="#004e92"></path></svg>