<?xml version="1.0" encoding="utf-8"?>
<!-- Generator: Adobe Illustrator 16.0.0, SVG Export Plug-In . SVG Version: 6.00 Build 0)  -->
<!DOCTYPE svg PUBLIC "-//W3C//DTD SVG 1.1//EN" "http://www.w3.org/Graphics/SVG/1.1/DTD/svg11.dtd">
<svg version="1.1" id="Layer_1" xmlns="http://www.w3.org/2000/svg" xmlns:xlink="http://www.w3.org/1999/xlink" x="0px" y="0px"
	 width="1000px" height="262.988px" viewBox="0 0 1000 262.988" enable-background="new 0 0 1000 262.988" xml:space="preserve">
<g>
	<g>
		
			<rect x="675.255" y="113.297" transform="matrix(0.7071 -0.7071 0.7071 0.7071 92.1438 572.7224)" fill="#4DE6FF" width="124.341" height="123.667"/>
		
			<rect x="850.723" y="113.058" transform="matrix(0.7071 0.7071 -0.7071 0.7071 390.9392 -594.0434)" fill="#4DE6FF" width="123.664" height="123.667"/>
		<polygon fill="#71A0FF" points="825.11,174.894 781.147,218.851 737.187,174.894 781.147,130.93 		"/>
		
			<rect x="763.275" y="25.614" transform="matrix(0.7071 0.7071 -0.7071 0.7071 303.5066 -557.8304)" fill="#00B3EA" width="123.668" height="123.666"/>
		
			<rect x="837.845" y="144.142" transform="matrix(0.7071 0.7071 -0.7071 0.7071 378.0513 -562.9495)" fill="#71A0FF" width="61.496" height="61.499"/>
		
			<rect x="793.785" y="100.422" transform="matrix(0.7071 0.7071 -0.7071 0.7071 334.3617 -544.8617)" fill="#375BEF" width="62.174" height="61.496"/>
	</g>
	<g>
		<path fill="#00B3EA" d="M109.434,110.058c0,5.444-1.045,10.5-3.137,15.168c-2.094,4.679-4.953,8.755-8.578,12.246
			c-3.629,3.489-7.886,6.207-12.765,8.155c-4.887,1.958-10.045,2.933-15.487,2.933H0V0h69.26c5.159,0,9.833,1.116,14.017,3.344
			c4.187,2.23,7.743,5.121,10.673,8.681c2.929,3.559,5.196,7.609,6.8,12.138c1.601,4.54,2.407,9.1,2.407,13.709
			c0,7.528-1.886,14.438-5.651,20.711c-3.766,6.278-8.995,10.884-15.694,13.807c8.507,2.512,15.24,7.226,20.193,14.13
			C106.956,93.423,109.434,101.269,109.434,110.058z M10.672,9.623v59.424h54.404c4.044,0,7.741-0.837,11.088-2.51
			c3.349-1.676,6.241-3.872,8.683-6.595c2.439-2.715,4.359-5.889,5.754-9.516c1.394-3.63,2.094-7.328,2.094-11.094
			c0-4.043-0.665-7.845-1.989-11.401c-1.325-3.558-3.137-6.697-5.441-9.417c-2.3-2.718-5.057-4.883-8.263-6.489
			c-3.212-1.6-6.767-2.402-10.67-2.402H10.672z M98.761,108.6c0-3.911-0.697-7.711-2.092-11.413
			c-1.396-3.688-3.349-6.97-5.859-9.832c-2.509-2.854-5.476-5.126-8.89-6.803c-3.421-1.673-7.082-2.507-10.986-2.507H10.672v60.889
			h58.795c4.187,0,8.057-0.839,11.615-2.506c3.557-1.676,6.623-3.947,9.206-6.803c2.581-2.858,4.637-6.1,6.172-9.732
			C97.994,116.268,98.761,112.497,98.761,108.6z"/>
		<path fill="#00B3EA" d="M138.516,148.56V0h10.672v138.934h88.715v9.626H138.516z"/>
		<path fill="#00B3EA" d="M310.516,139.771c10.046,0,18.378-1.886,25.003-5.654c6.625-3.759,11.855-8.714,15.695-14.853
			c3.834-6.137,6.554-13.111,8.159-20.926c1.604-7.808,2.405-15.691,2.405-23.641V0h10.674v74.698c0,9.902-1.083,19.392-3.241,28.45
			c-2.166,9.072-5.688,17.058-10.572,23.967c-4.882,6.9-11.226,12.374-19.037,16.424c-7.816,4.044-17.44,6.07-28.878,6.07
			c-11.856,0-21.76-2.127-29.71-6.387c-7.951-4.254-14.332-9.904-19.146-16.953c-4.814-7.039-8.232-15.022-10.253-23.955
			c-2.024-8.923-3.035-18.129-3.035-27.617V0h10.67v74.698c0,8.23,0.802,16.247,2.408,24.063c1.602,7.808,4.395,14.747,8.367,20.816
			c3.98,6.07,9.243,10.952,15.8,14.647C292.378,137.926,300.609,139.771,310.516,139.771z"/>
		<path fill="#00B3EA" d="M508.039,138.934v9.626h-88.976l-2.509-7.486l-7.486-0.726V0h97.09v9.623h-86.416V68h75.536v9.208h-75.536
			v61.725H508.039z"/>
	</g>
	<g>
		<path fill="#375BEF" d="M33.115,183.086c0-9.413,1.772-18.671,5.323-27.796c3.543-9.121,8.719-17.292,15.525-24.535
			c6.805-7.236,15.055-13.104,24.753-17.591c9.699-4.483,20.774-6.729,33.226-6.729c14.911,0,27.828,3.073,38.764,9.226
			c10.926,6.154,19.068,14.3,24.425,24.428l-32.352,23.018c-1.449-3.761-3.367-6.87-5.755-9.333c-2.39-2.464-5.03-4.416-7.925-5.866
			c-2.9-1.443-5.901-2.459-9.014-3.042c-3.113-0.57-6.118-0.865-9.009-0.865c-6.083,0-11.333,1.196-15.745,3.581
			c-4.417,2.394-8.033,5.505-10.858,9.341c-2.822,3.838-4.921,8.179-6.297,13.031c-1.377,4.85-2.063,9.662-2.063,14.44
			c0,5.354,0.792,10.494,2.389,15.413c1.591,4.923,3.909,9.271,6.947,13.031c3.042,3.768,6.768,6.77,11.188,9.015
			c4.409,2.241,9.369,3.364,14.873,3.364c2.892,0,5.86-0.325,8.903-0.977c3.037-0.654,5.971-1.745,8.792-3.258
			c2.825-1.521,5.357-3.478,7.604-5.859c2.241-2.396,4.016-5.324,5.318-8.8l34.528,20.628c-2.316,5.648-5.829,10.716-10.532,15.199
			c-4.706,4.487-10.063,8.254-16.068,11.293c-6.011,3.041-12.454,5.359-19.326,6.953c-6.876,1.586-13.572,2.385-20.088,2.385
			c-11.438,0-21.9-2.279-31.378-6.838c-9.483-4.566-17.664-10.603-24.539-18.13c-6.879-7.527-12.198-16.072-15.96-25.628
			C34.996,202.634,33.115,192.932,33.115,183.086z"/>
		<path fill="#375BEF" d="M230.94,107.314h39.028l53.938,155.674h-43.415l-9.427-30.482h-41.443l-9.208,30.482h-43.635
			L230.94,107.314z M264.267,204.01l-13.814-48.245l-14.47,48.245H264.267z"/>
		<path fill="#375BEF" d="M336.844,262.988V107.314h71.48c7.599,0,14.616,1.57,21.05,4.707c6.431,3.148,11.949,7.24,16.553,12.284
			c4.605,5.039,8.223,10.817,10.852,17.317c2.633,6.508,3.95,13.047,3.95,19.625c0,9.063-1.972,17.51-5.919,25.326
			c-3.947,7.821-9.432,14.218-16.446,19.19l32.89,57.224h-48.237l-27.41-47.8h-16.003v47.8H336.844z M379.603,177.913h26.967
			c2.632,0,5.076-1.458,7.344-4.379c2.265-2.929,3.4-7.02,3.4-12.286c0-5.399-1.315-9.541-3.948-12.386
			c-2.631-2.85-5.261-4.277-7.891-4.277h-25.872V177.913z"/>
		<path fill="#375BEF" d="M595.792,225.711v37.277H484.844V107.314h108.974v37.271h-66.217v21.929h56.566v34.641h-56.566v24.557
			H595.792z"/>
		<path fill="#375BEF" d="M736.995,144.585h-44.728v118.403h-42.761V144.585h-44.948v-37.271h132.437V144.585z"/>
	</g>
</g>
</svg>
