<?xml version="1.0" encoding="UTF-8" standalone="no"?>
<!DOCTYPE svg PUBLIC "-//W3C//DTD SVG 1.1//EN" "http://www.w3.org/Graphics/SVG/1.1/DTD/svg11.dtd">
<svg width="100%" height="100%" viewBox="0 0 3710 3710" version="1.1" xmlns="http://www.w3.org/2000/svg" xmlns:xlink="http://www.w3.org/1999/xlink" xml:space="preserve" xmlns:serif="http://www.serif.com/" style="fill-rule:evenodd;clip-rule:evenodd;stroke-linejoin:round;stroke-miterlimit:2;">
    <g>
        <path d="M1750.2,3255C1683.96,3255 1618.23,3250.06 1553.48,3239.94C1501.02,3231.74 1399.18,3214.77 1279.47,3167.26L2239.22,3167.26C2080.44,3224.67 1914.05,3255 1750.2,3255ZM2422.4,3087.18L2424.91,2913.73L2686.87,2913.73C2604.68,2980.88 2515.75,3038.93 2422.4,3087.18ZM3132.35,2275.04C3085.67,2230.16 3027.32,2197.89 2962.48,2183.51C3021.49,2021.72 3052.45,1819.62 3026.54,1569.4C3024.52,1549.91 3008.65,1534.74 2989.09,1533.66C2922.22,1529.99 2766.37,1516.18 2622.73,1464.97C2477.86,1328.49 2284.58,1245.15 2072.33,1245.15C2045.43,1245.15 2018.87,1246.49 1992.64,1249.1L2015.64,1196.14C2046.02,1191.48 2075.87,1181.94 2103.95,1167.4L2160.65,1200.71C2161.5,1201.21 2162.45,1201.45 2163.39,1201.45C2164.65,1201.45 2165.9,1201.01 2166.9,1200.15L2226.88,1148.85C2228.63,1147.35 2229.24,1144.9 2228.4,1142.76L2204.28,1081.58C2222.98,1056.09 2237.03,1028.07 2246.34,998.791L2310.03,982.238C2312.26,981.657 2313.88,979.725 2314.06,977.425L2320.19,898.737C2320.37,896.437 2319.07,894.277 2316.95,893.357L2256.6,867.14C2251.94,836.767 2242.4,806.918 2227.86,778.833L2261.17,722.132C2262.34,720.144 2262.11,717.633 2260.61,715.88L2209.31,655.904C2208.26,654.677 2206.75,654.011 2205.2,654.011C2204.53,654.011 2203.86,654.134 2203.22,654.387L2142.04,678.508C2116.55,659.8 2088.54,645.752 2059.25,636.442L2042.7,572.758C2042.12,570.525 2040.19,568.907 2037.89,568.728L1959.2,562.596C1959.06,562.585 1958.92,562.58 1958.78,562.58C1956.64,562.58 1954.68,563.847 1953.82,565.832L1927.6,626.184C1897.23,630.846 1867.38,640.386 1839.3,654.92L1782.6,621.615C1781.74,621.115 1780.8,620.87 1779.86,620.87C1778.6,620.87 1777.35,621.31 1776.34,622.168L1716.37,673.474C1714.61,674.973 1714,677.42 1714.85,679.566L1738.97,740.741C1720.26,766.236 1706.22,794.245 1696.91,823.53L1633.22,840.084C1630.99,840.664 1629.37,842.597 1629.19,844.896L1623.06,923.585C1622.88,925.884 1624.18,928.045 1626.3,928.963L1686.65,955.181C1691.31,985.553 1700.85,1015.4 1715.38,1043.49L1682.08,1100.19C1680.91,1102.18 1681.13,1104.69 1682.63,1106.44L1733.94,1166.42C1734.98,1167.64 1736.5,1168.31 1738.04,1168.31C1738.71,1168.31 1739.38,1168.19 1740.03,1167.93L1801.2,1143.81C1826.7,1162.52 1854.71,1176.57 1883.99,1185.88L1900.55,1249.56C1901.12,1251.8 1903.06,1253.41 1905.36,1253.59L1939.34,1256.24C1620.49,1309.99 1364.09,1553.79 1284.43,1870.41C1277.37,1898.47 1252.88,1916.12 1226.75,1916.12C1218.07,1916.12 1209.2,1914.17 1200.73,1910C1133.44,1876.91 1058.08,1858.36 978.463,1858.36C936.964,1858.36 894.301,1863.41 851.051,1874.05C726.614,1904.68 620.264,1982.44 550.919,2087.98C525.417,1774.01 594.486,1444.56 769.807,1170.13C1029.79,763.185 1490.96,528.269 1934.78,528.269C1945.66,528.269 1956.48,528.41 1967.34,528.693C2065.07,531.239 2439.59,546.933 2768.74,822.307C2817.08,862.755 2923.71,958.868 3019.81,1111.35C3227.93,1441.57 3260.6,1891.58 3132.35,2275.04ZM2459.96,1240.69C2473.06,1250.3 2487.45,1257.51 2502.49,1262.3L2510.99,1295.01C2511.29,1296.16 2512.28,1296.99 2513.47,1297.08L2553.89,1300.23C2553.96,1300.23 2554.03,1300.24 2554.1,1300.24C2555.2,1300.24 2556.21,1299.59 2556.65,1298.57L2570.12,1267.57C2585.72,1265.17 2601.05,1260.27 2615.48,1252.8L2644.61,1269.91C2645.04,1270.17 2645.53,1270.3 2646.01,1270.3C2646.66,1270.3 2647.3,1270.07 2647.82,1269.63L2678.62,1243.27C2679.53,1242.5 2679.84,1241.25 2679.4,1240.15L2667.01,1208.72C2676.62,1195.62 2683.84,1181.24 2688.62,1166.19L2721.34,1157.69C2722.48,1157.39 2723.31,1156.4 2723.41,1155.22L2726.56,1114.8C2726.65,1113.62 2725.98,1112.51 2724.89,1112.03L2693.89,1098.57C2691.5,1082.96 2686.6,1067.63 2679.13,1053.2L2696.24,1024.08C2696.84,1023.06 2696.72,1021.77 2695.96,1020.87L2669.6,990.058C2669.06,989.428 2668.28,989.086 2667.49,989.086C2667.15,989.086 2666.8,989.148 2666.47,989.279L2635.05,1001.67C2621.95,992.059 2607.56,984.843 2592.52,980.061L2584.02,947.347C2583.72,946.201 2582.73,945.37 2581.54,945.278L2541.12,942.128C2541.05,942.123 2540.98,942.12 2540.9,942.12C2539.81,942.12 2538.8,942.77 2538.36,943.79L2524.89,974.791C2509.29,977.186 2493.96,982.087 2479.53,989.554L2450.4,972.444C2449.97,972.187 2449.48,972.061 2449,972.061C2448.35,972.061 2447.71,972.287 2447.19,972.728L2416.38,999.084C2415.48,999.854 2415.17,1001.11 2415.61,1002.21L2428,1033.64C2418.39,1046.73 2411.17,1061.12 2406.39,1076.17L2373.67,1084.67C2372.53,1084.97 2371.7,1085.96 2371.6,1087.14L2368.45,1127.56C2368.36,1128.74 2369.03,1129.85 2370.12,1130.32L2401.12,1143.79C2403.51,1159.39 2408.41,1174.73 2415.88,1189.15L2398.77,1218.28C2398.17,1219.3 2398.29,1220.59 2399.05,1221.49L2425.41,1252.3C2425.95,1252.93 2426.72,1253.27 2427.52,1253.27C2427.86,1253.27 2428.21,1253.21 2428.54,1253.08L2459.96,1240.69Z" style="fill:url(#_Linear1);"/>
        <path d="M2881.61,2913.73L2771.63,2913.73C2955.34,2913.73 3104.72,2757.82 3096.85,2569.63C3091.68,2446.07 3020.18,2340.13 2917.94,2288.29C2934.03,2255.41 2948.98,2220.52 2962.48,2183.51C3027.32,2197.89 3085.67,2230.16 3132.35,2275.04C3198.85,2338.99 3241.68,2428.53 3245.85,2528.35C3254.67,2739.11 3087.36,2913.73 2881.61,2913.73ZM841.734,2894.91C585.652,2822.72 409.439,2552.76 479.144,2255.25C493.354,2194.6 517.953,2138.15 550.919,2087.98C620.264,1982.44 726.614,1904.68 851.051,1874.05C894.301,1863.41 936.964,1858.36 978.463,1858.36C1058.08,1858.36 1133.44,1876.91 1200.73,1910C1209.2,1914.17 1218.07,1916.12 1226.75,1916.12C1252.88,1916.12 1277.37,1898.47 1284.43,1870.41C1364.09,1553.79 1620.49,1309.99 1939.34,1256.24L1984.05,1259.72C1984.19,1259.74 1984.33,1259.74 1984.47,1259.74C1986.61,1259.74 1988.56,1258.47 1989.43,1256.49L1992.64,1249.1C2018.87,1246.49 2045.43,1245.15 2072.33,1245.15C2284.58,1245.15 2477.86,1328.49 2622.73,1464.97C2563.28,1443.77 2505.92,1416.17 2457.82,1380.21C2450.51,1374.75 2440.53,1370.4 2431.55,1370.4C2426.08,1370.4 2420.98,1372.01 2417.1,1375.99C2381.55,1412.36 2341.47,1443.36 2299.41,1469.32C2221.35,1439.94 2137.04,1423.91 2049.05,1423.91C1710.67,1423.91 1426.34,1661.11 1345.55,1982.18C1339.25,2007.24 1317.39,2022.99 1294.06,2022.99C1286.3,2022.99 1278.38,2021.25 1270.82,2017.53C1210.75,1987.98 1143.45,1971.43 1072.37,1971.43C1035.32,1971.43 997.223,1975.93 958.606,1985.44C794.683,2025.78 665.919,2157.72 626.541,2325.79C574.877,2546.3 674.528,2749.87 840.661,2849.54L841.734,2894.91Z" style="fill:url(#_Linear2);"/>
        <path d="M2771.63,2913.73L2424.91,2913.73L2427.21,2754.8C2432.1,2756.83 2437.32,2757.86 2442.56,2757.86C2448.38,2757.86 2454.21,2756.59 2459.62,2754.03C2530.26,2720.57 2770.93,2588.76 2917.94,2288.29C3020.18,2340.13 3091.68,2446.07 3096.85,2569.63C3104.72,2757.82 2955.34,2913.73 2771.63,2913.73ZM840.661,2849.54C674.528,2749.87 574.877,2546.3 626.541,2325.79C665.919,2157.72 794.683,2025.78 958.606,1985.44C997.223,1975.93 1035.32,1971.43 1072.37,1971.43C1143.45,1971.43 1210.75,1987.98 1270.82,2017.53C1278.38,2021.25 1286.3,2022.99 1294.06,2022.99C1317.39,2022.99 1339.25,2007.24 1345.55,1982.18C1426.34,1661.11 1710.67,1423.91 2049.05,1423.91C2137.04,1423.91 2221.35,1439.94 2299.41,1469.32C2180.2,1542.88 2045.09,1575.92 1952.12,1575.92C1941.54,1575.92 1931.49,1575.49 1922.09,1574.64C1920.89,1574.54 1919.7,1574.48 1918.51,1574.48C1908.42,1574.48 1898.66,1578.31 1891.24,1585.26C1882.94,1593.04 1878.36,1603.98 1878.62,1615.35C1882.7,1792.58 1877.96,2002.55 1954.97,2212.53L899.25,2185.21C898.638,2185.19 898.026,2185.19 897.415,2185.19C878.698,2185.19 860.714,2192.6 847.43,2205.84C833.712,2219.51 826.206,2238.21 826.664,2257.56L840.661,2849.54Z" style="fill:url(#_Linear3);"/>
        <path d="M2393.57,3167.26L875.582,3167.26C860.143,3167.26 847.511,3154.64 847.511,3139.22L841.734,2894.91L840.661,2849.54L826.664,2257.56C826.206,2238.21 833.712,2219.51 847.43,2205.84C860.714,2192.6 878.698,2185.19 897.415,2185.19C898.026,2185.19 898.638,2185.19 899.25,2185.21L1954.97,2212.53C1959.19,2224.03 1963.64,2235.5 1968.36,2246.99L905.085,2218.47C904.642,2218.46 904.198,2218.45 903.756,2218.45C890.62,2218.45 878.003,2223.66 868.677,2232.96C859.039,2242.57 853.737,2255.73 854.078,2269.34L875.224,3112.31C875.224,3126.92 887.175,3138.87 901.782,3138.87L2356.96,3138.87C2371.57,3138.87 2383.52,3126.92 2383.52,3112.31L2389.26,2731.26C2399.77,2738.16 2410.46,2745 2421.41,2751.82C2423.28,2752.98 2425.21,2753.97 2427.21,2754.8L2424.91,2913.73L2422.4,3087.18L2421.64,3139.22C2421.64,3154.64 2409.01,3167.26 2393.57,3167.26Z" style="fill:url(#_Linear4);"/>
        <path d="M875.224,3112.31C875.224,3126.92 887.175,3138.87 901.782,3138.87L2356.96,3138.87C2371.57,3138.87 2383.52,3126.92 2383.52,3112.31L2395.44,2320.39C2394.04,2272.73 2352.26,2255.6 2326.93,2256.61L905.085,2218.47C891.475,2218.1 878.317,2223.35 868.677,2232.96C859.039,2242.57 853.737,2255.73 854.078,2269.34L875.224,3112.31Z" style="fill:rgb(125,151,244);fill-rule:nonzero;"/>
        <path d="M2367.8,2736.09L2367.76,2736.09C2365.59,2736.06 2363.87,2734.29 2363.91,2732.14L2364.85,2667.92C2364.88,2665.79 2366.62,2664.08 2368.74,2664.08L2368.77,2664.08C2370.94,2664.11 2372.66,2665.88 2372.63,2668.03L2371.69,2732.26C2371.66,2734.39 2369.92,2736.09 2367.8,2736.09Z" style="fill:white;fill-rule:nonzero;"/>
        <path d="M2370.11,2578.71L2370.05,2578.71C2367.9,2578.68 2366.18,2576.91 2366.22,2574.76L2369.83,2328.78C2369.76,2314.17 2365.33,2302.5 2356.64,2294.19C2340.44,2278.66 2314.72,2279.45 2313.63,2279.51L1859.18,2267.32C1857.03,2267.26 1855.33,2265.47 1855.39,2263.33C1855.45,2261.18 1857.1,2259.35 1859.39,2259.54L2313.57,2271.73C2316.4,2271.56 2343.79,2271.09 2362.03,2288.57C2372.29,2298.4 2377.53,2311.94 2377.61,2328.82L2374,2574.88C2373.97,2577 2372.23,2578.71 2370.11,2578.71Z" style="fill:white;fill-rule:nonzero;"/>
        <path d="M730.018,3239.68L2508.36,3239.68C2511.47,3239.68 2514.01,3237.13 2514.01,3234.02L2514.01,3168.68C2514.01,3165.57 2511.47,3163.03 2508.36,3163.03L730.018,3163.03C726.909,3163.03 724.364,3165.57 724.364,3168.68L724.364,3234.02C724.364,3237.13 726.909,3239.68 730.018,3239.68Z" style="fill:url(#_Linear5);"/>
        <path d="M1506.55,3100.24L946.268,3100.24C925.609,3100.24 908.863,3083.49 908.863,3062.83L908.863,2331.49C908.863,2310.27 926.494,2293.3 947.698,2294.11L1507.98,2315.56C1528.07,2316.32 1543.95,2332.83 1543.95,2352.93L1543.95,3062.83C1543.95,3083.49 1527.21,3100.24 1506.55,3100.24Z" style="fill:rgb(145,179,250);fill-rule:nonzero;"/>
        <path d="M1395.11,2630.33L1023.98,2630.33C1021.04,2630.33 1018.65,2627.94 1018.65,2625L1018.65,2586.34C1018.65,2583.4 1021.04,2581.01 1023.98,2581.01L1395.11,2581.01C1398.05,2581.01 1400.44,2583.4 1400.44,2586.34L1400.44,2625C1400.44,2627.94 1398.05,2630.33 1395.11,2630.33Z" style="fill:rgb(201,218,253);fill-rule:nonzero;"/>
        <path d="M1395.86,2709.1L1024.73,2709.1C1021.79,2709.1 1019.4,2706.71 1019.4,2703.76L1019.4,2665.11C1019.4,2662.16 1021.79,2659.77 1024.73,2659.77L1395.86,2659.77C1398.8,2659.77 1401.19,2662.16 1401.19,2665.11L1401.19,2703.76C1401.19,2706.71 1398.8,2709.1 1395.86,2709.1Z" style="fill:rgb(201,218,253);fill-rule:nonzero;"/>
        <path d="M1398.1,2789.51L1026.97,2789.51C1024.03,2789.51 1021.64,2787.12 1021.64,2784.18L1021.64,2745.52C1021.64,2742.58 1024.03,2740.19 1026.97,2740.19L1398.1,2740.19C1401.04,2740.19 1403.43,2742.58 1403.43,2745.52L1403.43,2784.18C1403.43,2787.12 1401.04,2789.51 1398.1,2789.51Z" style="fill:rgb(201,218,253);fill-rule:nonzero;"/>
        <path d="M1398.85,2868.27L1027.72,2868.27C1024.78,2868.27 1022.39,2865.89 1022.39,2862.94L1022.39,2824.28C1022.39,2821.34 1024.78,2818.95 1027.72,2818.95L1398.85,2818.95C1401.79,2818.95 1404.18,2821.34 1404.18,2824.28L1404.18,2862.94C1404.18,2865.89 1401.79,2868.27 1398.85,2868.27Z" style="fill:rgb(201,218,253);fill-rule:nonzero;"/>
        <path d="M2209.02,2630.27L1670.78,2630.27C1667.84,2630.27 1665.45,2627.89 1665.45,2624.94L1665.45,2586.28C1665.45,2583.34 1667.84,2580.95 1670.78,2580.95L2198.86,2580.95C2203.95,2585.83 2209.1,2590.69 2214.35,2595.55L2214.35,2624.94C2214.35,2627.89 2211.96,2630.27 2209.02,2630.27Z" style="fill:rgb(191,204,250);fill-rule:nonzero;"/>
        <path d="M2210.71,2709.1L1672.48,2709.1C1669.53,2709.1 1667.15,2706.71 1667.15,2703.76L1667.15,2665.11C1667.15,2662.16 1669.53,2659.77 1672.48,2659.77L2210.71,2659.77C2213.66,2659.77 2216.05,2662.16 2216.05,2665.11L2216.05,2703.76C2216.05,2706.71 2213.66,2709.1 2210.71,2709.1Z" style="fill:rgb(191,204,250);fill-rule:nonzero;"/>
        <path d="M1987.06,2789.51L1672.48,2789.51C1669.53,2789.51 1667.15,2787.12 1667.15,2784.18L1667.15,2745.52C1667.15,2742.58 1669.53,2740.19 1672.48,2740.19L1987.06,2740.19C1990.01,2740.19 1992.4,2742.58 1992.4,2745.52L1992.4,2784.18C1992.4,2787.12 1990.01,2789.51 1987.06,2789.51Z" style="fill:rgb(191,204,250);fill-rule:nonzero;"/>
        <path d="M1956.83,2397.13L1948.47,2397.13C1944.32,2397.13 1940.95,2393.76 1940.95,2389.61L1940.95,2361.03C1940.95,2350.8 1932.66,2342.51 1922.43,2342.51L1870.63,2342.51C1860.4,2342.51 1852.1,2350.8 1852.1,2361.03L1852.1,2389.61C1852.1,2393.76 1848.74,2397.13 1844.59,2397.13L1836.22,2397.13C1832.07,2397.13 1828.71,2393.76 1828.71,2389.61L1828.71,2361.03C1828.71,2337.88 1847.47,2319.12 1870.63,2319.12L1922.43,2319.12C1945.58,2319.12 1964.35,2337.88 1964.35,2361.03L1964.35,2389.61C1964.35,2393.76 1960.99,2397.13 1956.83,2397.13Z" style="fill:rgb(191,204,250);fill-rule:nonzero;"/>
        <path d="M1967.2,2543.71L1825.86,2543.71C1817.2,2543.71 1810.18,2536.69 1810.18,2528.03L1810.18,2419.56C1810.18,2410.9 1817.2,2403.87 1825.86,2403.87L1967.2,2403.87C1975.86,2403.87 1982.88,2410.9 1982.88,2419.56L1982.88,2528.03C1982.88,2536.69 1975.86,2543.71 1967.2,2543.71ZM1896.53,2431.7C1895.98,2431.7 1895.42,2431.72 1894.86,2431.76C1881.72,2432.57 1871.06,2443.33 1870.37,2456.48C1869.83,2466.63 1875.08,2475.6 1883.11,2480.4L1876.31,2508.71C1875.43,2512.36 1878.2,2515.88 1881.96,2515.88L1911.1,2515.88C1914.86,2515.88 1917.63,2512.36 1916.75,2508.71L1909.95,2480.4C1917.6,2475.83 1922.73,2467.46 1922.73,2457.9C1922.73,2443.43 1911,2431.7 1896.53,2431.7Z" style="fill:rgb(191,204,250);fill-rule:nonzero;"/>
        <path d="M2368.25,1130.81C2367.7,1130.81 2367.13,1130.68 2366.62,1130.39C2364.99,1129.48 2364.41,1127.44 2365.31,1125.81C2367.48,1121.91 2369.58,1117.99 2371.62,1114.03C2372.47,1112.38 2374.49,1111.74 2376.15,1112.59C2377.8,1113.44 2378.45,1115.47 2377.6,1117.13C2375.53,1121.14 2373.39,1125.12 2371.2,1129.08C2370.58,1130.19 2369.43,1130.81 2368.25,1130.81Z" style="fill:rgb(145,179,250);fill-rule:nonzero;"/>
        <path d="M1556.87,1081.78C1555.54,1081.78 1554.28,1080.98 1553.75,1079.67C1550.42,1071.47 1547.3,1063.08 1544.47,1054.75C1543.88,1052.99 1544.82,1051.08 1546.59,1050.48C1548.33,1049.89 1550.25,1050.83 1550.85,1052.59C1553.63,1060.8 1556.71,1069.06 1559.99,1077.14C1560.69,1078.87 1559.86,1080.83 1558.14,1081.53C1557.72,1081.7 1557.29,1081.78 1556.87,1081.78ZM1587.82,1143.72C1586.68,1143.72 1585.56,1143.13 1584.93,1142.08C1580.37,1134.48 1575.99,1126.68 1571.91,1118.88C1571.06,1117.24 1571.69,1115.2 1573.34,1114.34C1574.98,1113.48 1577.02,1114.12 1577.88,1115.77C1581.9,1123.44 1586.21,1131.13 1590.7,1138.62C1591.66,1140.21 1591.14,1142.28 1589.55,1143.24C1589.01,1143.56 1588.41,1143.72 1587.82,1143.72ZM2330.06,1188.56C2329.34,1188.56 2328.61,1188.33 2328,1187.85C2326.53,1186.71 2326.27,1184.59 2327.41,1183.12C2332.77,1176.23 2337.98,1169.12 2342.89,1161.99C2343.95,1160.45 2346.05,1160.07 2347.57,1161.12C2349.1,1162.17 2349.49,1164.27 2348.44,1165.8C2343.45,1173.05 2338.17,1180.27 2332.72,1187.26C2332.06,1188.11 2331.07,1188.56 2330.06,1188.56ZM1627.93,1200.16C1626.97,1200.16 1626.01,1199.74 1625.34,1198.94C1619.7,1192.17 1614.18,1185.13 1608.92,1178.02C1607.82,1176.53 1608.14,1174.42 1609.63,1173.31C1611.14,1172.21 1613.24,1172.53 1614.34,1174.02C1619.52,1181.02 1624.96,1187.96 1630.52,1194.64C1631.71,1196.06 1631.51,1198.19 1630.08,1199.38C1629.46,1199.9 1628.69,1200.16 1627.93,1200.16ZM2283.47,1239.76C2282.57,1239.76 2281.68,1239.4 2281.02,1238.7C2279.74,1237.35 2279.8,1235.22 2281.16,1233.94C2287.49,1227.96 2293.73,1221.73 2299.69,1215.42C2300.97,1214.07 2303.1,1214.01 2304.45,1215.28C2305.8,1216.56 2305.86,1218.69 2304.59,1220.04C2298.53,1226.45 2292.21,1232.77 2285.78,1238.84C2285.13,1239.45 2284.29,1239.76 2283.47,1239.76ZM1676.14,1249.86C1675.35,1249.86 1674.55,1249.58 1673.91,1249.02C1667.32,1243.19 1660.8,1237.06 1654.52,1230.82C1653.2,1229.51 1653.2,1227.38 1654.51,1226.06C1655.82,1224.74 1657.95,1224.73 1659.27,1226.05C1665.45,1232.19 1671.88,1238.23 1678.38,1243.97C1679.77,1245.21 1679.9,1247.33 1678.67,1248.73C1678,1249.48 1677.07,1249.86 1676.14,1249.86ZM2229.61,1283.33C2228.54,1283.33 2227.49,1282.82 2226.83,1281.88C2225.78,1280.35 2226.16,1278.25 2227.69,1277.19C2234.85,1272.25 2241.97,1267.03 2248.83,1261.68C2250.29,1260.54 2252.41,1260.8 2253.55,1262.27C2254.7,1263.73 2254.44,1265.85 2252.97,1266.99C2246,1272.42 2238.79,1277.72 2231.52,1282.74C2230.93,1283.14 2230.26,1283.33 2229.61,1283.33ZM1731.34,1291.61C1730.72,1291.61 1730.08,1291.44 1729.52,1291.07C1722.09,1286.31 1714.71,1281.26 1707.57,1276.07C1706.07,1274.97 1705.74,1272.87 1706.83,1271.36C1707.93,1269.86 1710.04,1269.53 1711.54,1270.62C1718.56,1275.74 1725.83,1280.71 1733.16,1285.41C1734.72,1286.41 1735.18,1288.49 1734.17,1290.06C1733.53,1291.06 1732.45,1291.61 1731.34,1291.61ZM2169.74,1318.13C2168.49,1318.13 2167.28,1317.43 2166.7,1316.22C2165.89,1314.55 2166.6,1312.54 2168.28,1311.73C2176.11,1307.96 2183.93,1303.9 2191.54,1299.66C2193.18,1298.76 2195.21,1299.34 2196.12,1300.97C2197.03,1302.59 2196.44,1304.64 2194.82,1305.55C2187.09,1309.85 2179.15,1313.97 2171.19,1317.8C2170.72,1318.03 2170.23,1318.13 2169.74,1318.13ZM1792.32,1324.34C1791.86,1324.34 1791.4,1324.25 1790.96,1324.06C1782.87,1320.49 1774.79,1316.64 1766.96,1312.62C1765.31,1311.77 1764.65,1309.74 1765.5,1308.08C1766.35,1306.44 1768.38,1305.78 1770.04,1306.63C1777.75,1310.59 1785.71,1314.38 1793.68,1317.89C1795.38,1318.64 1796.15,1320.63 1795.4,1322.33C1794.85,1323.59 1793.61,1324.34 1792.32,1324.34ZM2105.22,1343.27C2103.77,1343.27 2102.44,1342.34 2102,1340.88C2101.46,1339.1 2102.47,1337.22 2104.24,1336.68C2112.58,1334.16 2120.94,1331.35 2129.09,1328.35C2130.83,1327.71 2132.77,1328.6 2133.41,1330.35C2134.05,1332.09 2133.16,1334.02 2131.42,1334.67C2123.15,1337.72 2114.66,1340.56 2106.2,1343.13C2105.87,1343.23 2105.54,1343.27 2105.22,1343.27ZM1857.64,1347.3C1857.35,1347.3 1857.06,1347.26 1856.77,1347.18C1848.23,1344.91 1839.66,1342.35 1831.29,1339.57C1829.52,1338.99 1828.56,1337.08 1829.15,1335.32C1829.73,1333.56 1831.63,1332.6 1833.4,1333.18C1841.66,1335.91 1850.1,1338.44 1858.5,1340.68C1860.3,1341.16 1861.37,1343.01 1860.89,1344.8C1860.48,1346.31 1859.12,1347.3 1857.64,1347.3ZM2037.6,1358.18C2035.95,1358.18 2034.51,1356.97 2034.27,1355.29C2034.01,1353.44 2035.29,1351.74 2037.13,1351.48C2045.75,1350.27 2054.44,1348.78 2062.96,1347.07C2064.77,1346.7 2066.56,1347.88 2066.93,1349.7C2067.29,1351.52 2066.11,1353.3 2064.29,1353.67C2055.64,1355.41 2046.82,1356.92 2038.07,1358.15C2037.91,1358.17 2037.75,1358.18 2037.6,1358.18ZM1925.7,1359.99C1925.57,1359.99 1925.45,1359.98 1925.33,1359.97C1916.54,1359.01 1907.67,1357.79 1898.99,1356.34C1897.15,1356.03 1895.92,1354.29 1896.22,1352.46C1896.53,1350.63 1898.27,1349.38 1900.1,1349.7C1908.66,1351.13 1917.39,1352.34 1926.05,1353.27C1927.9,1353.47 1929.24,1355.13 1929.04,1356.98C1928.85,1358.71 1927.39,1359.99 1925.7,1359.99ZM1974.42,1362.61C1972.43,1362.61 1970.44,1362.6 1968.46,1362.57C1966.6,1362.55 1965.11,1361.02 1965.13,1359.16C1965.16,1357.32 1966.66,1355.84 1968.5,1355.84L1968.55,1355.84C1977.26,1355.96 1986.05,1355.81 1994.74,1355.42C1996.48,1355.3 1998.18,1356.77 1998.26,1358.63C1998.34,1360.49 1996.9,1362.06 1995.05,1362.15C1988.21,1362.46 1981.27,1362.61 1974.42,1362.61Z" style="fill:rgb(145,179,250);fill-rule:nonzero;"/>
        <path d="M1535.81,1015.62C1534.28,1015.62 1532.9,1014.58 1532.53,1013.03C1531.5,1008.62 1530.53,1004.21 1529.63,999.781C1529.26,997.959 1530.43,996.181 1532.25,995.813C1534.07,995.444 1535.85,996.611 1536.22,998.439C1537.11,1002.8 1538.07,1007.15 1539.09,1011.49C1539.51,1013.3 1538.39,1015.11 1536.58,1015.54C1536.32,1015.59 1536.06,1015.62 1535.81,1015.62Z" style="fill:rgb(145,179,250);fill-rule:nonzero;"/>
        <path d="M1592.89,672.307C1592.27,672.307 1591.65,672.139 1591.09,671.787C1589.52,670.797 1589.05,668.716 1590.04,667.145C1592.45,663.332 1594.91,659.541 1597.44,655.783C1598.47,654.241 1600.57,653.823 1602.11,654.866C1603.65,655.904 1604.06,657.995 1603.03,659.537C1600.53,663.243 1598.11,666.974 1595.74,670.735C1595.1,671.751 1594,672.307 1592.89,672.307Z" style="fill:rgb(145,179,250);fill-rule:nonzero;"/>
        <path d="M1942.53,462.821C1940.78,462.821 1939.3,461.463 1939.18,459.691C1939.05,457.834 1940.44,456.226 1942.3,456.098C1951.54,455.447 1960.94,455.079 1970.24,455L1970.27,455C1972.12,455 1973.62,456.489 1973.63,458.337C1973.65,460.198 1972.15,461.717 1970.3,461.733C1961.14,461.812 1951.88,462.174 1942.77,462.812L1942.53,462.821ZM2042.87,466.951C2042.71,466.951 2042.53,466.938 2042.36,466.911C2033.32,465.524 2024.12,464.403 2015.01,463.574C2013.16,463.407 2011.8,461.766 2011.96,459.915C2012.14,458.064 2013.73,456.693 2015.62,456.867C2024.87,457.709 2034.21,458.85 2043.38,460.257C2045.22,460.54 2046.48,462.256 2046.2,464.094C2045.94,465.761 2044.51,466.951 2042.87,466.951ZM1870.56,473.743C1869.04,473.743 1867.65,472.698 1867.29,471.149C1866.86,469.341 1867.98,467.526 1869.79,467.099C1878.85,464.965 1888.07,463.091 1897.2,461.529C1899.07,461.233 1900.77,462.447 1901.08,464.278C1901.4,466.112 1900.17,467.852 1898.34,468.164C1889.34,469.703 1880.26,471.55 1871.34,473.654C1871.08,473.713 1870.82,473.743 1870.56,473.743ZM2113.68,483.744C2113.34,483.744 2112.99,483.692 2112.64,483.58C2103.96,480.762 2095.05,478.178 2086.2,475.896C2084.4,475.433 2083.31,473.595 2083.77,471.797C2084.24,469.995 2086.1,468.914 2087.88,469.374C2096.87,471.691 2105.9,474.315 2114.72,477.175C2116.49,477.748 2117.46,479.648 2116.89,481.417C2116.42,482.84 2115.1,483.744 2113.68,483.744ZM1801.3,496.132C1799.98,496.132 1798.73,495.353 1798.19,494.058C1797.48,492.342 1798.29,490.372 1800.01,489.656C1808.56,486.102 1817.36,482.758 1826.15,479.727C1827.92,479.125 1829.83,480.052 1830.44,481.811C1831.04,483.57 1830.11,485.487 1828.35,486.092C1819.68,489.08 1811.02,492.371 1802.59,495.876C1802.17,496.05 1801.73,496.132 1801.3,496.132ZM2180.85,511.739C2180.33,511.739 2179.81,511.621 2179.31,511.364C2171.19,507.179 2162.83,503.191 2154.46,499.509C2152.76,498.763 2151.98,496.777 2152.73,495.074C2153.48,493.371 2155.46,492.591 2157.17,493.348C2165.67,497.083 2174.16,501.129 2182.4,505.38C2184.05,506.232 2184.7,508.264 2183.85,509.914C2183.25,511.075 2182.07,511.739 2180.85,511.739ZM1736.57,529.466C1735.45,529.466 1734.35,528.904 1733.71,527.878C1732.73,526.3 1733.21,524.226 1734.79,523.243C1742.67,518.341 1750.81,513.613 1758.98,509.198C1760.63,508.307 1762.67,508.928 1763.55,510.559C1764.43,512.196 1763.82,514.238 1762.19,515.122C1754.13,519.472 1746.11,524.127 1738.35,528.957C1737.8,529.302 1737.18,529.466 1736.57,529.466ZM2242.59,550.241C2241.9,550.241 2241.19,550.024 2240.59,549.577C2233.25,544.123 2225.65,538.833 2217.99,533.849C2216.43,532.836 2215.99,530.749 2217.01,529.19C2218.02,527.635 2220.1,527.191 2221.67,528.207C2229.44,533.267 2237.16,538.636 2244.61,544.172C2246.1,545.28 2246.41,547.391 2245.3,548.883C2244.64,549.771 2243.62,550.241 2242.59,550.241ZM1678.07,572.821C1677.14,572.821 1676.2,572.43 1675.54,571.67C1674.32,570.27 1674.46,568.143 1675.86,566.92C1682.86,560.801 1690.14,554.828 1697.47,549.163C1698.96,548.032 1701.06,548.305 1702.2,549.771C1703.33,551.244 1703.06,553.358 1701.59,554.496C1694.36,560.075 1687.19,565.959 1680.29,571.989C1679.65,572.548 1678.86,572.821 1678.07,572.821ZM2297.3,598.212C2296.42,598.212 2295.54,597.87 2294.88,597.189C2288.54,590.65 2281.89,584.203 2275.12,578.025C2273.74,576.773 2273.64,574.643 2274.9,573.268C2276.15,571.887 2278.28,571.792 2279.65,573.048C2286.53,579.321 2293.28,585.863 2299.72,592.501C2301.01,593.836 2300.98,595.966 2299.64,597.262C2298.99,597.896 2298.15,598.212 2297.3,598.212ZM1627.24,624.924C1626.49,624.924 1625.72,624.671 1625.1,624.148C1623.67,622.962 1623.47,620.838 1624.66,619.408C1630.56,612.293 1636.79,605.241 1643.16,598.452C1644.43,597.094 1646.56,597.028 1647.92,598.301C1649.28,599.576 1649.35,601.707 1648.07,603.062C1641.79,609.751 1635.66,616.699 1629.84,623.708C1629.17,624.51 1628.21,624.924 1627.24,624.924ZM2343.7,654.307C2342.63,654.307 2341.59,653.807 2340.93,652.87C2335.7,645.39 2330.15,637.963 2324.45,630.799C2323.29,629.343 2323.53,627.226 2324.99,626.068C2326.45,624.905 2328.56,625.151 2329.72,626.604C2335.5,633.88 2341.14,641.416 2346.45,649.01C2347.52,650.532 2347.15,652.63 2345.62,653.698C2345.04,654.109 2344.36,654.307 2343.7,654.307ZM2380.46,717.134C2379.21,717.134 2378,716.431 2377.42,715.228C2373.45,706.969 2369.18,698.743 2364.72,690.78C2363.82,689.159 2364.4,687.108 2366.02,686.197C2367.64,685.296 2369.7,685.872 2370.6,687.493C2375.12,695.574 2379.46,703.924 2383.49,712.308C2384.3,713.985 2383.59,715.997 2381.92,716.802C2381.45,717.029 2380.95,717.134 2380.46,717.134ZM2406.55,785.088C2405.09,785.088 2403.75,784.138 2403.32,782.668C2400.75,773.893 2397.86,765.085 2394.75,756.485C2394.12,754.739 2395.03,752.809 2396.78,752.175C2398.52,751.537 2400.46,752.447 2401.09,754.196C2404.25,762.922 2407.17,771.865 2409.78,780.774C2410.31,782.56 2409.28,784.43 2407.5,784.953C2407.18,785.045 2406.86,785.088 2406.55,785.088Z" style="fill:rgb(145,179,250);fill-rule:nonzero;"/>
        <path d="M2419.35,842.405C2417.72,842.405 2416.29,841.218 2416.03,839.558C2415.34,835.163 2414.59,830.773 2413.77,826.391C2413.43,824.563 2414.63,822.804 2416.46,822.462C2418.28,822.146 2420.05,823.33 2420.39,825.155C2421.22,829.603 2421.98,834.058 2422.68,838.52C2422.97,840.357 2421.71,842.08 2419.87,842.366C2419.7,842.392 2419.52,842.405 2419.35,842.405Z" style="fill:rgb(145,179,250);fill-rule:nonzero;"/>
        <path d="M2320.19,898.737C2320.37,896.437 2319.07,894.277 2316.95,893.357L2256.6,867.14C2251.94,836.767 2242.4,806.918 2227.86,778.833L2261.17,722.132C2262.34,720.144 2262.11,717.633 2260.61,715.88L2209.31,655.904C2207.81,654.151 2205.36,653.542 2203.22,654.387L2142.04,678.508C2116.55,659.8 2088.54,645.752 2059.25,636.442L2042.7,572.758C2042.12,570.525 2040.19,568.907 2037.89,568.728L1959.2,562.596C1956.9,562.418 1954.74,563.717 1953.82,565.832L1927.6,626.184C1897.23,630.846 1867.38,640.386 1839.3,654.92L1782.6,621.615C1780.61,620.446 1778.1,620.669 1776.34,622.168L1716.37,673.474C1714.61,674.973 1714,677.42 1714.85,679.566L1738.97,740.741C1720.26,766.236 1706.22,794.245 1696.91,823.53L1633.22,840.084C1630.99,840.664 1629.37,842.597 1629.19,844.896L1623.06,923.585C1622.88,925.884 1624.18,928.045 1626.3,928.963L1686.65,955.181C1691.31,985.553 1700.85,1015.4 1715.38,1043.49L1682.08,1100.19C1680.91,1102.18 1681.13,1104.69 1682.63,1106.44L1733.94,1166.42C1735.43,1168.17 1737.88,1168.78 1740.03,1167.93L1801.2,1143.81C1826.7,1162.52 1854.71,1176.57 1883.99,1185.88L1900.55,1249.56C1901.12,1251.8 1903.06,1253.41 1905.36,1253.59L1984.05,1259.72C1986.35,1259.9 1988.51,1258.6 1989.43,1256.49L2015.64,1196.14C2046.02,1191.48 2075.87,1181.94 2103.95,1167.4L2160.65,1200.71C2162.64,1201.87 2165.15,1201.65 2166.9,1200.15L2226.88,1148.85C2228.63,1147.35 2229.24,1144.9 2228.4,1142.76L2204.28,1081.58C2222.98,1056.09 2237.03,1028.07 2246.34,998.791L2310.03,982.238C2312.26,981.657 2313.88,979.725 2314.06,977.425L2320.19,898.737Z" style="fill:rgb(145,179,250);fill-rule:nonzero;"/>
        <path d="M1971.46,986.311C1956.05,986.314 1941.05,981.57 1928.22,972.489C1894.4,948.559 1886.36,901.577 1910.29,867.76C1921.89,851.377 1939.17,840.491 1958.95,837.105C1963.23,836.375 1967.52,836.013 1971.77,836.013C1987.18,836.013 2002.19,840.75 2015.02,849.832C2031.41,861.427 2042.29,878.704 2045.68,898.483C2049.06,918.266 2044.54,938.183 2032.95,954.562C2021.36,970.944 2004.08,981.83 1984.3,985.216C1980.02,985.949 1975.72,986.311 1971.46,986.311ZM1971.76,846.111C1968.07,846.111 1964.36,846.426 1960.65,847.06C1943.53,849.99 1928.57,859.413 1918.54,873.592C1897.82,902.863 1904.78,943.532 1934.05,964.244C1945.16,972.108 1958.15,976.206 1971.49,976.206C1975.17,976.206 1978.89,975.894 1982.6,975.261C1999.72,972.332 2014.67,962.909 2024.7,948.73C2034.74,934.55 2038.65,917.312 2035.73,900.19C2032.79,883.068 2023.37,868.112 2009.19,858.077C1998.08,850.216 1985.1,846.111 1971.76,846.111Z" style="fill:rgb(222,232,253);fill-rule:nonzero;"/>
        <path d="M1970.26,1106.68C1965.11,1106.68 1959.94,1106.48 1954.76,1106.07C1902.7,1102.02 1855.33,1077.93 1821.39,1038.25C1790.82,1002.52 1774.43,958.004 1774.43,911.487C1774.43,906.338 1774.63,901.169 1775.04,895.981C1779.09,843.921 1803.18,796.555 1842.87,762.61C1878.59,732.049 1923.11,715.659 1969.63,715.659C1974.78,715.659 1979.95,715.859 1985.13,716.263C2037.2,720.317 2084.56,744.406 2118.5,784.089C2127.57,794.681 2135.5,806.224 2142.07,818.392L2133.19,823.192C2126.95,811.652 2119.43,800.704 2110.83,790.654C2078.64,753.02 2033.72,730.177 1984.35,726.33C1979.46,725.953 1974.58,725.765 1969.73,725.765C1925.59,725.765 1883.34,741.283 1849.43,770.284C1811.8,802.476 1788.95,847.396 1785.1,896.768C1784.72,901.685 1784.53,906.587 1784.53,911.47C1784.53,955.584 1800.08,997.805 1829.06,1031.69C1861.25,1069.32 1906.17,1092.16 1955.54,1096.01C1960.46,1096.39 1965.37,1096.58 1970.26,1096.58C2014.39,1096.58 2056.58,1081.04 2090.46,1052.06C2116,1030.21 2135.11,1001.9 2145.72,970.205L2155.3,973.414C2144.11,1006.84 2123.96,1036.69 2097.02,1059.73C2061.3,1090.29 2016.78,1106.68 1970.26,1106.68Z" style="fill:rgb(222,232,253);fill-rule:nonzero;"/>
        <path d="M2747.98,1241.32C2747.4,1241.32 2746.81,1241.17 2746.27,1240.85C2744.67,1239.91 2744.14,1237.84 2745.09,1236.24C2747.35,1232.42 2749.52,1228.52 2751.52,1224.64C2752.37,1222.99 2754.4,1222.34 2756.06,1223.19C2757.71,1224.04 2758.35,1226.08 2757.5,1227.73C2755.44,1231.72 2753.21,1235.74 2750.88,1239.67C2750.26,1240.74 2749.13,1241.32 2747.98,1241.32Z" style="fill:rgb(145,179,250);fill-rule:nonzero;"/>
        <path d="M2353.86,1247.92C2352.75,1247.92 2351.66,1247.38 2351.02,1246.37C2346.08,1238.67 2341.56,1230.59 2337.56,1222.35C2336.75,1220.68 2337.44,1218.67 2339.12,1217.86C2340.8,1217.05 2342.8,1217.75 2343.61,1219.42C2347.5,1227.41 2351.9,1235.26 2356.69,1242.74C2357.69,1244.31 2357.24,1246.39 2355.67,1247.39C2355.11,1247.75 2354.48,1247.92 2353.86,1247.92ZM2702.81,1296.08C2701.89,1296.08 2700.96,1295.7 2700.3,1294.96C2699.06,1293.57 2699.18,1291.44 2700.57,1290.21L2702.55,1288.42C2708.47,1283.02 2714.16,1277.26 2719.47,1271.29C2720.71,1269.89 2722.83,1269.77 2724.22,1271.01C2725.62,1272.25 2725.74,1274.37 2724.5,1275.76C2719.04,1281.9 2713.18,1287.84 2707.08,1293.4L2705.05,1295.23C2704.41,1295.8 2703.61,1296.08 2702.81,1296.08ZM2400.79,1301.16C2400.03,1301.16 2399.27,1300.9 2398.64,1300.38C2391.64,1294.54 2384.89,1288.2 2378.58,1281.54C2377.3,1280.19 2377.36,1278.06 2378.7,1276.78C2380.06,1275.51 2382.19,1275.56 2383.46,1276.91C2389.6,1283.38 2396.15,1289.53 2402.95,1295.21C2404.38,1296.4 2404.57,1298.52 2403.38,1299.95C2402.71,1300.75 2401.76,1301.16 2400.79,1301.16ZM2643.24,1334.67C2641.95,1334.67 2640.72,1333.93 2640.16,1332.68C2639.4,1330.98 2640.16,1328.99 2641.86,1328.23C2649.97,1324.6 2657.96,1320.46 2665.59,1315.9C2667.18,1314.95 2669.25,1315.47 2670.2,1317.07C2671.16,1318.66 2670.64,1320.73 2669.04,1321.68C2661.19,1326.37 2652.96,1330.64 2644.61,1334.38C2644.16,1334.58 2643.69,1334.67 2643.24,1334.67ZM2461.62,1337.69C2461.19,1337.69 2460.76,1337.61 2460.35,1337.45C2451.88,1334.01 2443.53,1330.02 2435.51,1325.6C2433.88,1324.71 2433.28,1322.66 2434.18,1321.03C2435.08,1319.4 2437.12,1318.81 2438.75,1319.71C2446.55,1324 2454.67,1327.87 2462.89,1331.21C2464.6,1331.91 2465.44,1333.87 2464.74,1335.6C2464.2,1336.9 2462.94,1337.69 2461.62,1337.69ZM2574.73,1353.29C2573.04,1353.29 2571.58,1352.01 2571.39,1350.29C2571.18,1348.45 2572.51,1346.78 2574.36,1346.57C2583.22,1345.58 2592.09,1344.06 2600.72,1342.06C2602.51,1341.62 2604.33,1342.76 2604.76,1344.57C2605.18,1346.38 2604.05,1348.19 2602.24,1348.61C2593.36,1350.68 2584.23,1352.24 2575.11,1353.27C2574.98,1353.28 2574.86,1353.29 2574.73,1353.29ZM2530.7,1354L2530.43,1353.99C2521.3,1353.27 2512.13,1352.01 2503.17,1350.24C2501.34,1349.88 2500.16,1348.1 2500.52,1346.28C2500.88,1344.46 2502.66,1343.27 2504.47,1343.63C2513.18,1345.35 2522.09,1346.58 2530.96,1347.28C2532.81,1347.42 2534.2,1349.05 2534.05,1350.9C2533.92,1352.66 2532.44,1354 2530.7,1354Z" style="fill:rgb(145,179,250);fill-rule:nonzero;"/>
        <path d="M2325.22,1182.83C2323.73,1182.83 2322.37,1181.83 2321.97,1180.32C2320.81,1175.95 2319.76,1171.47 2318.86,1167.03C2318.49,1165.21 2319.66,1163.43 2321.49,1163.06C2323.31,1162.69 2325.09,1163.86 2325.45,1165.69C2326.33,1170 2327.35,1174.34 2328.48,1178.6C2328.96,1180.39 2327.88,1182.24 2326.08,1182.71C2325.79,1182.79 2325.51,1182.83 2325.22,1182.83Z" style="fill:rgb(145,179,250);fill-rule:nonzero;"/>
        <path d="M2352.95,1000.12C2352.34,1000.12 2351.72,999.955 2351.16,999.603C2349.59,998.613 2349.12,996.536 2350.11,994.961C2352.52,991.121 2355.09,987.307 2357.72,983.622C2358.8,982.113 2360.91,981.761 2362.42,982.839C2363.93,983.921 2364.28,986.021 2363.2,987.534C2360.64,991.114 2358.15,994.819 2355.8,998.551C2355.16,999.567 2354.07,1000.12 2352.95,1000.12Z" style="fill:rgb(145,179,250);fill-rule:nonzero;"/>
        <path d="M2512.5,894.801C2510.87,894.801 2509.44,893.618 2509.18,891.961C2508.89,890.123 2510.14,888.4 2511.98,888.111C2520.84,886.707 2529.91,885.803 2538.92,885.421C2540.78,885.382 2542.35,886.783 2542.43,888.644C2542.51,890.501 2541.06,892.069 2539.21,892.148C2530.45,892.517 2521.64,893.397 2513.03,894.759C2512.85,894.788 2512.67,894.801 2512.5,894.801ZM2608.49,899.726C2608.21,899.726 2607.91,899.69 2607.62,899.614C2599.18,897.372 2590.51,895.597 2581.86,894.338C2580.02,894.071 2578.74,892.362 2579.01,890.524C2579.28,888.68 2580.97,887.361 2582.82,887.677C2591.73,888.972 2600.66,890.797 2609.35,893.105C2611.15,893.582 2612.22,895.426 2611.74,897.224C2611.34,898.73 2609.98,899.726 2608.49,899.726ZM2445.98,916.023C2444.74,916.023 2443.55,915.339 2442.96,914.156C2442.13,912.489 2442.81,910.471 2444.47,909.642C2452.52,905.644 2460.9,902.07 2469.39,899.013C2471.15,898.388 2473.06,899.292 2473.7,901.042C2474.33,902.791 2473.42,904.72 2471.67,905.348C2463.42,908.317 2455.28,911.789 2447.47,915.671C2446.99,915.912 2446.48,916.023 2445.98,916.023ZM2672.47,927.652C2671.85,927.652 2671.23,927.484 2670.67,927.132C2663.28,922.461 2655.54,918.177 2647.67,914.396C2646,913.59 2645.29,911.582 2646.1,909.905C2646.9,908.229 2648.9,907.512 2650.59,908.327C2658.69,912.22 2666.66,916.632 2674.27,921.438C2675.84,922.435 2676.31,924.512 2675.32,926.083C2674.68,927.096 2673.58,927.652 2672.47,927.652ZM2388.85,956.202C2387.97,956.202 2387.08,955.854 2386.42,955.16C2385.13,953.812 2385.18,951.682 2386.53,950.399C2387.89,949.101 2389.27,947.812 2390.67,946.537C2395.92,941.736 2401.46,937.124 2407.12,932.827C2408.6,931.699 2410.71,931.985 2411.84,933.471C2412.96,934.951 2412.68,937.062 2411.19,938.186C2405.7,942.364 2400.31,946.846 2395.21,951.507C2393.85,952.75 2392.5,954.006 2391.18,955.272C2390.52,955.893 2389.69,956.202 2388.85,956.202ZM2725.17,973.469C2724.22,973.469 2723.28,973.068 2722.61,972.286C2720.89,970.267 2719.13,968.271 2717.33,966.295C2713.22,961.794 2708.89,957.406 2704.45,953.25C2703.09,951.978 2703.02,949.847 2704.29,948.489C2705.56,947.128 2707.69,947.059 2709.05,948.332C2713.62,952.609 2718.08,957.126 2722.3,961.758C2724.16,963.787 2725.97,965.842 2727.74,967.919C2728.94,969.336 2728.77,971.46 2727.36,972.667C2726.72,973.206 2725.95,973.469 2725.17,973.469ZM2761.91,1032.86C2760.6,1032.86 2759.35,1032.1 2758.81,1030.81C2755.39,1022.77 2751.47,1014.84 2747.14,1007.24C2746.22,1005.63 2746.78,1003.57 2748.4,1002.65C2750.01,1001.73 2752.06,1002.3 2752.99,1003.91C2757.45,1011.73 2761.49,1019.9 2765.01,1028.18C2765.73,1029.89 2764.94,1031.87 2763.22,1032.6C2762.79,1032.78 2762.35,1032.86 2761.91,1032.86Z" style="fill:rgb(145,179,250);fill-rule:nonzero;"/>
        <path d="M2777.49,1087.5C2775.86,1087.5 2774.43,1086.31 2774.17,1084.65C2773.49,1080.3 2772.67,1075.91 2771.75,1071.61C2771.36,1069.79 2772.51,1068 2774.33,1067.61C2776.18,1067.22 2777.94,1068.38 2778.33,1070.19C2779.28,1074.62 2780.12,1079.14 2780.82,1083.61C2781.11,1085.45 2779.85,1087.17 2778.01,1087.46C2777.84,1087.48 2777.66,1087.5 2777.49,1087.5Z" style="fill:rgb(145,179,250);fill-rule:nonzero;"/>
        <path d="M2726.56,1114.8C2726.65,1113.62 2725.98,1112.51 2724.89,1112.03L2693.89,1098.57C2691.5,1082.96 2686.6,1067.63 2679.13,1053.2L2696.24,1024.08C2696.84,1023.06 2696.72,1021.77 2695.96,1020.87L2669.6,990.058C2668.83,989.158 2667.57,988.845 2666.47,989.279L2635.05,1001.67C2621.95,992.059 2607.56,984.843 2592.52,980.061L2584.02,947.347C2583.72,946.201 2582.73,945.37 2581.54,945.278L2541.12,942.128C2539.94,942.035 2538.83,942.703 2538.36,943.79L2524.89,974.791C2509.29,977.186 2493.96,982.087 2479.53,989.554L2450.4,972.444C2449.38,971.844 2448.09,971.958 2447.19,972.728L2416.38,999.084C2415.48,999.854 2415.17,1001.11 2415.61,1002.21L2428,1033.64C2418.39,1046.73 2411.17,1061.12 2406.39,1076.17L2373.67,1084.67C2372.53,1084.97 2371.7,1085.96 2371.6,1087.14L2368.45,1127.56C2368.36,1128.74 2369.03,1129.85 2370.12,1130.32L2401.12,1143.79C2403.51,1159.39 2408.41,1174.73 2415.88,1189.15L2398.77,1218.28C2398.17,1219.3 2398.29,1220.59 2399.05,1221.49L2425.41,1252.3C2426.18,1253.2 2427.44,1253.51 2428.54,1253.08L2459.96,1240.69C2473.06,1250.3 2487.45,1257.51 2502.49,1262.3L2510.99,1295.01C2511.29,1296.16 2512.28,1296.99 2513.47,1297.08L2553.89,1300.23C2555.07,1300.32 2556.18,1299.65 2556.65,1298.57L2570.12,1267.57C2585.72,1265.17 2601.05,1260.27 2615.48,1252.8L2644.61,1269.91C2645.63,1270.51 2646.92,1270.4 2647.82,1269.63L2678.62,1243.27C2679.53,1242.5 2679.84,1241.25 2679.4,1240.15L2667.01,1208.72C2676.62,1195.62 2683.84,1181.24 2688.62,1166.19L2721.34,1157.69C2722.48,1157.39 2723.31,1156.4 2723.41,1155.22L2726.56,1114.8Z" style="fill:rgb(145,179,250);fill-rule:nonzero;"/>
        <path d="M2547.42,1162.24C2539,1162.24 2530.8,1159.65 2523.79,1154.69C2505.32,1141.61 2500.92,1115.94 2514,1097.47C2520.33,1088.51 2529.77,1082.57 2540.58,1080.72C2542.92,1080.32 2545.27,1080.12 2547.59,1080.12C2556.01,1080.12 2564.21,1082.71 2571.22,1087.67C2580.17,1094.01 2586.12,1103.44 2587.97,1114.25C2589.82,1125.06 2587.35,1135.94 2581.01,1144.89C2574.68,1153.85 2565.24,1159.79 2554.43,1161.64C2552.09,1162.04 2549.75,1162.24 2547.42,1162.24ZM2547.55,1090.24C2537.83,1090.24 2528.27,1094.78 2522.24,1103.3C2512.39,1117.23 2515.7,1136.58 2529.63,1146.44C2534.91,1150.18 2541.1,1152.14 2547.44,1152.14C2549.2,1152.14 2550.96,1151.99 2552.72,1151.69C2560.87,1150.29 2567.99,1145.81 2572.77,1139.06C2577.54,1132.31 2579.4,1124.1 2578.01,1115.96C2576.62,1107.81 2572.13,1100.69 2565.39,1095.92C2559.97,1092.08 2553.73,1090.24 2547.55,1090.24Z" style="fill:rgb(222,232,253);fill-rule:nonzero;"/>
        <path d="M2546.81,1224.07C2544.1,1224.07 2541.38,1223.97 2538.65,1223.75C2511.25,1221.62 2486.33,1208.94 2468.47,1188.06C2451.91,1168.71 2443.81,1144.92 2443.81,1121.25C2443.81,1092.2 2456.01,1063.32 2479.77,1043C2499.12,1026.45 2522.9,1018.34 2546.57,1018.34C2575.62,1018.34 2604.5,1030.55 2624.82,1054.31C2625.11,1054.64 2625.4,1054.98 2625.68,1055.32C2629.68,1060.12 2633.24,1065.27 2636.29,1070.67L2636.32,1070.73L2636.46,1070.97C2636.54,1071.11 2636.61,1071.25 2636.69,1071.39L2636.82,1071.62C2636.96,1071.87 2637.09,1072.11 2637.22,1072.36L2628.34,1077.16C2625.21,1071.38 2621.45,1065.91 2617.15,1060.87C2598.82,1039.45 2572.77,1028.44 2546.57,1028.44C2539.11,1028.44 2531.64,1029.34 2524.33,1031.14C2510.72,1034.48 2497.68,1040.97 2486.33,1050.68C2464.91,1069 2453.91,1095.05 2453.9,1121.24C2453.9,1142.59 2461.21,1164.04 2476.14,1181.49C2494.46,1202.91 2520.51,1213.92 2546.71,1213.92C2568.06,1213.92 2589.5,1206.62 2606.96,1191.69C2619.73,1180.75 2629.29,1166.59 2634.6,1150.73L2644.19,1153.94C2638.29,1171.53 2627.69,1187.24 2613.52,1199.36C2594.72,1215.44 2571.29,1224.07 2546.81,1224.07Z" style="fill:rgb(222,232,253);fill-rule:nonzero;"/>
        <path d="M2442.56,2757.86C2437.32,2757.86 2432.1,2756.83 2427.21,2754.8C2425.21,2753.97 2423.28,2752.98 2421.41,2751.82C2410.46,2745 2399.77,2738.16 2389.26,2731.26C2322.54,2687.45 2264.59,2642.04 2214.35,2595.55C2209.1,2590.69 2203.95,2585.83 2198.86,2580.95C2094.78,2481.01 2025.17,2376.16 1978.4,2270.52C1977.24,2267.9 1976.09,2265.26 1974.96,2262.64C1972.71,2257.43 1970.51,2252.21 1968.36,2246.99C1963.64,2235.5 1959.19,2224.03 1954.97,2212.53C1877.96,2002.55 1882.7,1792.58 1878.62,1615.35C1878.36,1603.98 1882.94,1593.04 1891.24,1585.26C1898.66,1578.31 1908.42,1574.48 1918.51,1574.48C1919.7,1574.48 1920.89,1574.54 1922.09,1574.64C1931.49,1575.49 1941.54,1575.92 1952.12,1575.92C2045.09,1575.92 2180.2,1542.88 2299.41,1469.32C2341.47,1443.36 2381.55,1412.36 2417.1,1375.99C2420.98,1372.01 2426.08,1370.4 2431.55,1370.4C2440.53,1370.4 2450.51,1374.75 2457.82,1380.21C2505.92,1416.17 2563.28,1443.77 2622.73,1464.97C2766.37,1516.18 2922.22,1529.99 2989.09,1533.66C3008.65,1534.74 3024.52,1549.91 3026.54,1569.4C3052.45,1819.62 3021.49,2021.72 2962.48,2183.51C2948.98,2220.52 2934.03,2255.41 2917.94,2288.29C2770.93,2588.76 2530.26,2720.57 2459.62,2754.03C2454.21,2756.59 2448.38,2757.86 2442.56,2757.86ZM1952.01,1635.33C1948.39,1635.33 1945.01,1636.74 1942.5,1639.31C1940,1641.85 1938.66,1645.22 1938.72,1648.79L1939.11,1670.17C1941.93,1830.58 1945.12,2012.39 2010.34,2190.94C2083.36,2390.85 2223.03,2554.62 2437.33,2691.61C2439.5,2693 2442,2693.7 2444.5,2693.7C2446.57,2693.7 2448.64,2693.22 2450.53,2692.25C2506.37,2663.54 2649.26,2579.34 2769.76,2417.73C2931.1,2201.34 2998.51,1927.31 2970.1,1603.24C2969.53,1596.73 2964.4,1591.67 2957.89,1591.18C2835.69,1582.18 2606.7,1551.16 2446.18,1444.65C2443.94,1443.17 2441.39,1442.44 2438.85,1442.44C2435.67,1442.44 2432.51,1443.58 2430.02,1445.82C2283.92,1576.73 2084.72,1635.33 1952.01,1635.33ZM2444.49,2688.26C2443.02,2688.26 2441.54,2687.84 2440.26,2687.03C2227.01,2550.7 2088.05,2387.82 2015.45,2189.07C1950.54,2011.38 1947.35,1830.06 1944.55,1670.07L1944.16,1648.69C1944.12,1646.59 1944.91,1644.61 1946.38,1643.12C1947.87,1641.61 1949.87,1640.77 1952.12,1640.77C2085.76,1640.77 2286.48,1581.74 2433.65,1449.87C2435.12,1448.55 2436.98,1447.88 2438.85,1447.88C2440.35,1447.88 2441.85,1448.31 2443.17,1449.18C2604.73,1556.38 2834.76,1587.56 2957.5,1596.61C2961.32,1596.89 2964.34,1599.88 2964.68,1603.72C2992.96,1926.41 2925.92,2199.19 2765.4,2414.48C2645.58,2575.18 2503.55,2658.88 2448.04,2687.41C2446.93,2687.98 2445.71,2688.26 2444.49,2688.26ZM2243.93,1919.17C2217.75,1919.17 2196.52,1940.4 2196.52,1966.58L2196.52,2294.51C2196.52,2320.69 2217.75,2341.92 2243.93,2341.92L2671.22,2341.92C2697.4,2341.92 2718.63,2320.69 2718.63,2294.51L2718.63,1966.58C2718.63,1940.4 2697.4,1919.17 2671.22,1919.17L2243.93,1919.17ZM2379.26,1733.66L2535.89,1733.66C2566.81,1733.66 2591.88,1758.73 2591.88,1789.66L2591.88,1876.05C2591.88,1888.61 2602.06,1898.78 2614.61,1898.78L2639.89,1898.78C2652.44,1898.78 2662.61,1888.61 2662.61,1876.05L2662.61,1789.66C2662.61,1719.67 2605.88,1662.93 2535.89,1662.93L2379.26,1662.93C2309.27,1662.93 2252.53,1719.67 2252.53,1789.66L2252.53,1876.05C2252.53,1888.61 2262.71,1898.78 2275.26,1898.78L2300.54,1898.78C2313.09,1898.78 2323.26,1888.61 2323.26,1876.05L2323.26,1789.66C2323.26,1758.73 2348.33,1733.66 2379.26,1733.66ZM2501.63,2257.79L2413.52,2257.79C2402.16,2257.79 2393.79,2247.16 2396.44,2236.12L2417,2150.53C2392.73,2136.02 2376.86,2108.9 2378.48,2078.22C2380.58,2038.47 2412.79,2005.93 2452.52,2003.46C2454.21,2003.36 2455.9,2003.31 2457.57,2003.31C2501.32,2003.31 2536.78,2038.76 2536.78,2082.51C2536.78,2111.42 2521.28,2136.7 2498.15,2150.53L2518.71,2236.12C2521.36,2247.16 2512.99,2257.79 2501.63,2257.79Z" style="fill:url(#_Linear6);"/>
        <path d="M2444.5,2693.7C2442,2693.7 2439.5,2693 2437.33,2691.61C2223.03,2554.62 2083.36,2390.85 2010.34,2190.94C1945.12,2012.39 1941.93,1830.58 1939.11,1670.17L1938.72,1648.79C1938.66,1645.22 1940,1641.85 1942.5,1639.31C1945.01,1636.74 1948.39,1635.33 1952.01,1635.33C2084.72,1635.33 2283.92,1576.73 2430.02,1445.82C2432.51,1443.58 2435.67,1442.44 2438.85,1442.44C2441.39,1442.44 2443.94,1443.17 2446.18,1444.65C2606.7,1551.16 2835.69,1582.18 2957.89,1591.18C2964.4,1591.67 2969.53,1596.73 2970.1,1603.24C2998.51,1927.31 2931.1,2201.34 2769.76,2417.73C2649.26,2579.34 2506.37,2663.54 2450.53,2692.25C2448.64,2693.22 2446.57,2693.7 2444.5,2693.7ZM1952.12,1640.77C1949.87,1640.77 1947.87,1641.61 1946.38,1643.12C1944.91,1644.61 1944.12,1646.59 1944.16,1648.69L1944.55,1670.07C1947.35,1830.06 1950.54,2011.38 2015.45,2189.07C2088.05,2387.82 2227.01,2550.7 2440.26,2687.03C2441.54,2687.84 2443.02,2688.26 2444.49,2688.26C2445.71,2688.26 2446.93,2687.98 2448.04,2687.41C2503.55,2658.88 2645.58,2575.18 2765.4,2414.48C2925.92,2199.19 2992.96,1926.41 2964.68,1603.72C2964.34,1599.88 2961.32,1596.89 2957.5,1596.61C2834.76,1587.56 2604.73,1556.38 2443.17,1449.18C2441.85,1448.31 2440.35,1447.88 2438.85,1447.88C2436.98,1447.88 2435.12,1448.55 2433.65,1449.87C2286.48,1581.74 2085.76,1640.77 1952.12,1640.77Z" style="fill:url(#_Linear7);"/>
        <path d="M2639.89,1898.78L2614.61,1898.78C2602.06,1898.78 2591.88,1888.61 2591.88,1876.05L2591.88,1789.66C2591.88,1758.73 2566.81,1733.66 2535.89,1733.66L2379.26,1733.66C2348.33,1733.66 2323.26,1758.73 2323.26,1789.66L2323.26,1876.05C2323.26,1888.61 2313.09,1898.78 2300.54,1898.78L2275.26,1898.78C2262.71,1898.78 2252.53,1888.61 2252.53,1876.05L2252.53,1789.66C2252.53,1719.67 2309.27,1662.93 2379.26,1662.93L2535.89,1662.93C2605.88,1662.93 2662.61,1719.67 2662.61,1789.66L2662.61,1876.05C2662.61,1888.61 2652.44,1898.78 2639.89,1898.78Z" style="fill:url(#_Linear8);"/>
        <path d="M2671.22,2341.92L2243.93,2341.92C2217.75,2341.92 2196.52,2320.69 2196.52,2294.51L2196.52,1966.58C2196.52,1940.4 2217.75,1919.17 2243.93,1919.17L2671.22,1919.17C2697.4,1919.17 2718.63,1940.4 2718.63,1966.58L2718.63,2294.51C2718.63,2320.69 2697.4,2341.92 2671.22,2341.92ZM2457.57,2003.31C2455.9,2003.31 2454.21,2003.36 2452.52,2003.46C2412.79,2005.93 2380.58,2038.47 2378.48,2078.22C2376.86,2108.9 2392.73,2136.02 2417,2150.53L2396.44,2236.12C2393.79,2247.16 2402.16,2257.79 2413.52,2257.79L2501.63,2257.79C2512.99,2257.79 2521.36,2247.16 2518.71,2236.12L2498.15,2150.53C2521.28,2136.7 2536.78,2111.42 2536.78,2082.51C2536.78,2038.76 2501.32,2003.31 2457.57,2003.31Z" style="fill:url(#_Linear9);"/>
        <path d="M819.696,1811.97C819.696,1811.97 854.303,1813.8 858.546,1885C858.546,1885 778.298,1956.94 669.9,1974.06C661.761,1975.35 681.277,1918.51 684.21,1910.81C698.169,1874.18 742.13,1850.59 819.696,1811.97Z" style="fill:url(#_Linear10);"/>
        <path d="M1209.44,1728.26L1136.41,1728.26C1136.41,1728.26 912.267,1480.71 765.255,1455.73C765.255,1455.73 662.921,1586.36 770.706,1830.44C779.376,1850.07 803.627,1858.79 821.716,1847.24C827.126,1843.78 831.011,1839.15 833.371,1833.35L824.704,1624.95C824.704,1624.95 1015.9,1792.17 1049.14,1824.44C1082.37,1856.71 1251.3,1837.04 1209.44,1728.26Z" style="fill:rgb(125,151,244);fill-rule:nonzero;"/>
        <path d="M503.403,2248C534.006,2221.18 582.768,2191.09 653.16,2182.46L676.966,2197.02C676.966,2197.02 661.786,2219.42 634.054,2243.07C608.566,2257.87 569.209,2277.92 536.581,2282.27C504.858,2286.49 500.18,2267.32 503.403,2248Z" style="fill:url(#_Linear11);"/>
        <path d="M684.21,1910.81C703.063,1916.91 711.355,1943.63 759.196,1925.96C805.48,1908.87 839.888,1886.83 857.59,1874.12C857.985,1877.57 858.317,1881.17 858.546,1885C858.546,1885 773.934,1965.48 665.534,1982.61C657.396,1983.89 650.947,1975.77 653.881,1968.07C659.145,1954.25 668.635,1933.3 684.21,1910.81Z" style="fill:rgb(145,179,250);fill-rule:nonzero;"/>
        <path d="M480.349,2270.9C486.382,2264.04 494.082,2256.17 503.403,2248C500.18,2267.32 504.858,2286.49 536.581,2282.27C569.209,2277.92 608.566,2257.87 634.054,2243.07C602.109,2270.31 553.504,2299.23 492.157,2297.53C478.53,2297.15 471.344,2281.13 480.349,2270.9Z" style="fill:rgb(145,179,250);fill-rule:nonzero;"/>
        <path d="M1206.77,1781.1L864.781,1784.8C864.781,1784.8 669.478,1946.38 634.054,2192.77C634.054,2192.77 628.174,2210.9 663.477,2214C663.477,2214 781.554,2136.88 858.546,2000.53C952.95,1833.35 1139.98,1908.6 1139.98,1908.6C1229.83,1928.43 1301.34,1921.05 1353.68,1840.52L1206.77,1781.1Z" style="fill:rgb(125,151,244);fill-rule:nonzero;"/>
        <path d="M1198.7,1505.6C1198.7,1505.6 1161.88,1690.11 981.491,1763.1L917.326,1755.54L902.185,1779.68L1052.7,1784.48C1052.7,1784.48 1181.35,1733.52 1249.52,1594.67C1251.77,1590.08 1289.31,1512.57 1198.7,1505.6Z" style="fill:url(#_Linear12);"/>
        <path d="M1178.97,1778.08C1178.97,1778.08 1220.83,1664.28 1229.83,1553.7C1229.83,1553.7 1199.2,1527.38 1180.06,1516.02C1173.86,1512.34 1171.52,1504.56 1174.65,1498.07C1188.73,1468.91 1273.84,1354.43 1280.22,1352.84C1314.87,1344.19 1457,1276.61 1557.1,1413.53C1600.06,1472.29 1548.58,1653.18 1353.68,1840.52C1290.97,1850.73 1232.33,1832.66 1178.97,1778.08Z" style="fill:url(#_Linear13);"/>
        <path d="M1340.29,1578.63C1340.29,1578.63 1223.97,1716.36 1075.26,1736.49C1075.26,1736.49 1036.83,1701.46 1008.25,1713.96C979.668,1726.47 940.481,1781.69 940.481,1781.69L1131.43,1781.69C1131.43,1781.69 1311.97,1775.33 1402.19,1665.85C1394.93,1627.54 1373.19,1604.65 1340.29,1578.63Z" style="fill:url(#_Linear14);"/>
        <path d="M1408.14,1256.24L1433.59,1341.12C1434.76,1345.01 1433.32,1349.22 1429.97,1351.51C1417.72,1359.91 1385.69,1376.6 1341.76,1360.38C1336.74,1358.52 1333.29,1353.83 1332.86,1348.49L1326.82,1274.54L1408.14,1256.24Z" style="fill:url(#_Linear15);"/>
        <path d="M1259.12,1187.49C1259.12,1187.49 1271.63,1275.48 1305.43,1302.54C1339.23,1329.6 1405.09,1309.23 1427.33,1242.89L1383.01,1129.47L1259.12,1187.49Z" style="fill:url(#_Linear16);"/>
        <path d="M1388,1202.87C1385.43,1203.7 1382.74,1202.05 1382.34,1199.38C1381.12,1191.26 1378.07,1175.18 1371.91,1164.23C1371.91,1164.23 1375.13,1152.69 1342.73,1170.13C1310.33,1187.57 1261.67,1213.18 1233.01,1197.93C1205.08,1183.06 1176.78,1108.21 1250.61,1122.07C1253.42,1122.6 1256,1120.36 1255.79,1117.51C1254.88,1105.21 1256.1,1076.91 1284.77,1067.82C1311.59,1059.32 1326.27,1071.43 1332.32,1078.74C1334.1,1080.89 1337.4,1080.84 1339.1,1078.63C1347.14,1068.14 1368.95,1045.81 1401.08,1059.97C1427.53,1071.63 1431.65,1087.93 1431.21,1098.08C1431.07,1101.37 1434.41,1103.6 1437.4,1102.22C1445.5,1098.49 1458.53,1096.55 1471.02,1112.19C1488.28,1133.82 1463.61,1152.57 1456.21,1157.49C1455,1158.3 1454.25,1159.63 1454.24,1161.09C1454.17,1172.33 1452.42,1221.39 1427.83,1249.06C1425.7,1251.46 1421.77,1250.75 1420.53,1247.8L1401.6,1202.69C1400.72,1200.6 1398.38,1199.52 1396.22,1200.22L1388,1202.87Z" style="fill:url(#_Linear17);"/>
        <path d="M1387.6,1212.03C1387.6,1212.03 1399.16,1164.94 1416.72,1180.23C1434.29,1195.52 1412.15,1229.16 1392.03,1235.58L1387.6,1212.03Z" style="fill:url(#_Linear18);"/>
        <path d="M950.094,1792.38L864.36,1506.46C860.863,1494.8 850.5,1486.52 838.352,1485.69L722.599,1477.77C710.833,1476.97 702.082,1488.46 705.988,1499.59L801.831,1772.64C804.919,1781.43 812.816,1787.65 822.091,1788.59L936.078,1801.24L950.094,1792.38Z" style="fill:url(#_Linear19);"/>
        <path d="M791.977,1603.37C798.378,1616.29 809.432,1623.86 816.667,1620.27C823.901,1616.69 824.577,1603.31 818.176,1590.39C811.775,1577.47 800.722,1569.9 793.487,1573.48C786.253,1577.07 785.576,1590.45 791.977,1603.37Z" style="fill:rgb(145,179,250);fill-rule:nonzero;"/>
        <path d="M936.078,1801.24C936.263,1801.24 936.449,1801.24 936.637,1801.23L1179.52,1788.95C1185.52,1788.65 1190.14,1783.54 1189.84,1777.53C1189.53,1771.53 1184.4,1766.81 1178.42,1767.21L935.537,1779.49C929.533,1779.79 924.912,1784.9 925.215,1790.91C925.51,1796.72 930.318,1801.24 936.078,1801.24Z" style="fill:url(#_Linear20);"/>
        <path d="M1229.83,1555.38C1228.9,1555.38 1228.15,1554.63 1228.15,1553.7C1227.98,1502.43 1247.71,1434.58 1247.91,1433.9C1248.17,1433.01 1249.1,1432.5 1249.99,1432.76C1250.89,1433.02 1251.4,1433.95 1251.14,1434.84C1250.94,1435.52 1231.35,1502.92 1231.51,1553.69C1231.52,1554.62 1230.76,1555.38 1229.83,1555.38Z" style="fill:url(#_Linear21);"/>
        <path d="M1340.29,1580.32C1339.92,1580.32 1339.55,1580.2 1339.24,1579.96C1338.52,1579.38 1338.39,1578.32 1338.97,1577.59C1339.5,1576.92 1392.29,1509.81 1410.36,1464.02C1410.7,1463.15 1411.67,1462.71 1412.54,1463.07C1413.41,1463.41 1413.83,1464.39 1413.49,1465.26C1395.24,1511.5 1342.14,1579 1341.61,1579.68C1341.28,1580.1 1340.78,1580.32 1340.29,1580.32Z" style="fill:url(#_Linear22);"/>
        <path d="M1415.12,1683.51L1405.52,1669.93C1404.98,1669.17 1405.16,1668.12 1405.92,1667.58C1406.68,1667.04 1407.73,1667.22 1408.27,1667.98L1416.3,1679.34C1491.21,1646.5 1537.58,1556.88 1538.05,1555.97C1538.47,1555.15 1539.48,1554.81 1540.31,1555.24C1541.14,1555.66 1541.47,1556.68 1541.04,1557.5C1540.57,1558.43 1493.15,1650.1 1416.37,1682.97L1415.12,1683.51Z" style="fill:url(#_Linear23);"/>
    </g>
    <defs>
        <linearGradient id="_Linear1" x1="0" y1="0" x2="1" y2="0" gradientUnits="userSpaceOnUse" gradientTransform="matrix(-2011.18,-1759.78,1759.78,-2011.18,3445.85,3280.42)"><stop offset="0" style="stop-color:rgb(218,226,253);stop-opacity:1"/><stop offset="1" style="stop-color:rgb(232,239,253);stop-opacity:1"/></linearGradient>
        <linearGradient id="_Linear2" x1="0" y1="0" x2="1" y2="0" gradientUnits="userSpaceOnUse" gradientTransform="matrix(2153.26,-3341.27,-3341.27,-2153.26,687.684,654.725)"><stop offset="0" style="stop-color:rgb(79,82,255);stop-opacity:1"/><stop offset="1" style="stop-color:rgb(63,66,226);stop-opacity:1"/></linearGradient>
        <linearGradient id="_Linear3" x1="0" y1="0" x2="1" y2="0" gradientUnits="userSpaceOnUse" gradientTransform="matrix(2153.26,-3341.27,-3341.27,-2153.26,687.684,654.725)"><stop offset="0" style="stop-color:rgb(93,103,253);stop-opacity:1"/><stop offset="1" style="stop-color:rgb(80,89,230);stop-opacity:1"/></linearGradient>
        <linearGradient id="_Linear4" x1="0" y1="0" x2="1" y2="0" gradientUnits="userSpaceOnUse" gradientTransform="matrix(-358.516,1075.55,1075.55,358.516,1773.23,3100.2)"><stop offset="0" style="stop-color:rgb(8,0,93);stop-opacity:1"/><stop offset="1" style="stop-color:rgb(26,14,144);stop-opacity:1"/></linearGradient>
        <linearGradient id="_Linear5" x1="0" y1="0" x2="1" y2="0" gradientUnits="userSpaceOnUse" gradientTransform="matrix(1596.34,-388.299,-388.299,-1596.34,939.071,3035.92)"><stop offset="0" style="stop-color:rgb(8,0,93);stop-opacity:1"/><stop offset="1" style="stop-color:rgb(26,14,144);stop-opacity:1"/></linearGradient>
        <linearGradient id="_Linear6" x1="0" y1="0" x2="1" y2="0" gradientUnits="userSpaceOnUse" gradientTransform="matrix(-464.568,454.468,-454.468,-464.568,3668.75,742.13)"><stop offset="0" style="stop-color:rgb(255,145,142);stop-opacity:1"/><stop offset="1" style="stop-color:rgb(253,112,98);stop-opacity:1"/></linearGradient>
        <linearGradient id="_Linear7" x1="0" y1="0" x2="1" y2="0" gradientUnits="userSpaceOnUse" gradientTransform="matrix(-464.568,454.468,-454.468,-464.568,3668.75,742.13)"><stop offset="0" style="stop-color:rgb(255,212,211);stop-opacity:1"/><stop offset="1" style="stop-color:rgb(255,198,193);stop-opacity:1"/></linearGradient>
        <linearGradient id="_Linear8" x1="0" y1="0" x2="1" y2="0" gradientUnits="userSpaceOnUse" gradientTransform="matrix(-464.568,454.468,-454.468,-464.568,3668.75,742.13)"><stop offset="0" style="stop-color:rgb(255,212,211);stop-opacity:1"/><stop offset="1" style="stop-color:rgb(255,198,193);stop-opacity:1"/></linearGradient>
        <linearGradient id="_Linear9" x1="0" y1="0" x2="1" y2="0" gradientUnits="userSpaceOnUse" gradientTransform="matrix(-464.568,454.468,-454.468,-464.568,3668.75,742.13)"><stop offset="0" style="stop-color:rgb(255,212,211);stop-opacity:1"/><stop offset="1" style="stop-color:rgb(255,198,193);stop-opacity:1"/></linearGradient>
        <linearGradient id="_Linear10" x1="0" y1="0" x2="1" y2="0" gradientUnits="userSpaceOnUse" gradientTransform="matrix(-125.458,-131.035,-131.035,125.458,784.727,1879.65)"><stop offset="0" style="stop-color:rgb(8,0,93);stop-opacity:1"/><stop offset="1" style="stop-color:rgb(26,14,144);stop-opacity:1"/></linearGradient>
        <linearGradient id="_Linear11" x1="0" y1="0" x2="1" y2="0" gradientUnits="userSpaceOnUse" gradientTransform="matrix(-237.309,-174.172,-174.172,237.309,618.299,2208.54)"><stop offset="0" style="stop-color:rgb(8,0,93);stop-opacity:1"/><stop offset="1" style="stop-color:rgb(26,14,144);stop-opacity:1"/></linearGradient>
        <linearGradient id="_Linear12" x1="0" y1="0" x2="1" y2="0" gradientUnits="userSpaceOnUse" gradientTransform="matrix(161.109,-191.589,-191.589,-161.109,1001.7,1564.84)"><stop offset="0" style="stop-color:rgb(253,186,186);stop-opacity:1"/><stop offset="1" style="stop-color:rgb(255,145,142);stop-opacity:1"/></linearGradient>
        <linearGradient id="_Linear13" x1="0" y1="0" x2="1" y2="0" gradientUnits="userSpaceOnUse" gradientTransform="matrix(-484.792,504.991,-504.991,-484.792,1800.54,1093.28)"><stop offset="0" style="stop-color:rgb(255,145,142);stop-opacity:1"/><stop offset="1" style="stop-color:rgb(253,112,98);stop-opacity:1"/></linearGradient>
        <linearGradient id="_Linear14" x1="0" y1="0" x2="1" y2="0" gradientUnits="userSpaceOnUse" gradientTransform="matrix(-322.031,440.556,440.556,322.031,1189.56,1739.16)"><stop offset="0" style="stop-color:rgb(253,186,186);stop-opacity:1"/><stop offset="1" style="stop-color:rgb(255,145,142);stop-opacity:1"/></linearGradient>
        <linearGradient id="_Linear15" x1="0" y1="0" x2="1" y2="0" gradientUnits="userSpaceOnUse" gradientTransform="matrix(-11.8618,106.756,106.756,11.8618,1386.55,1374.08)"><stop offset="0" style="stop-color:rgb(253,186,186);stop-opacity:1"/><stop offset="1" style="stop-color:rgb(255,145,142);stop-opacity:1"/></linearGradient>
        <linearGradient id="_Linear16" x1="0" y1="0" x2="1" y2="0" gradientUnits="userSpaceOnUse" gradientTransform="matrix(52.283,172.442,172.442,-52.283,1323.29,1280.95)"><stop offset="0" style="stop-color:rgb(253,186,186);stop-opacity:1"/><stop offset="1" style="stop-color:rgb(255,145,142);stop-opacity:1"/></linearGradient>
        <linearGradient id="_Linear17" x1="0" y1="0" x2="1" y2="0" gradientUnits="userSpaceOnUse" gradientTransform="matrix(-48.6093,-277.253,-277.253,48.6093,1370.47,964.32)"><stop offset="0" style="stop-color:rgb(8,0,93);stop-opacity:1"/><stop offset="1" style="stop-color:rgb(26,14,144);stop-opacity:1"/></linearGradient>
        <linearGradient id="_Linear18" x1="0" y1="0" x2="1" y2="0" gradientUnits="userSpaceOnUse" gradientTransform="matrix(52.2831,172.442,172.442,-52.2831,1377.44,1297.37)"><stop offset="0" style="stop-color:rgb(253,186,186);stop-opacity:1"/><stop offset="1" style="stop-color:rgb(255,145,142);stop-opacity:1"/></linearGradient>
        <linearGradient id="_Linear19" x1="0" y1="0" x2="1" y2="0" gradientUnits="userSpaceOnUse" gradientTransform="matrix(-245.049,0,0,245.049,950.094,1639.49)"><stop offset="0" style="stop-color:rgb(8,0,93);stop-opacity:1"/><stop offset="1" style="stop-color:rgb(26,14,144);stop-opacity:1"/></linearGradient>
        <linearGradient id="_Linear20" x1="0" y1="0" x2="1" y2="0" gradientUnits="userSpaceOnUse" gradientTransform="matrix(195.943,-53.7029,-53.7029,-195.943,920.352,1746.61)"><stop offset="0" style="stop-color:rgb(8,0,93);stop-opacity:1"/><stop offset="1" style="stop-color:rgb(26,14,144);stop-opacity:1"/></linearGradient>
        <linearGradient id="_Linear21" x1="0" y1="0" x2="1" y2="0" gradientUnits="userSpaceOnUse" gradientTransform="matrix(-75.7449,1166.47,-1166.47,-75.7449,1283.07,821.832)"><stop offset="0" style="stop-color:rgb(225,70,61);stop-opacity:1"/><stop offset="1" style="stop-color:rgb(232,96,89);stop-opacity:1"/></linearGradient>
        <linearGradient id="_Linear22" x1="0" y1="0" x2="1" y2="0" gradientUnits="userSpaceOnUse" gradientTransform="matrix(-75.7449,1166.47,-1166.47,-75.7449,1420.97,830.786)"><stop offset="0" style="stop-color:rgb(225,70,61);stop-opacity:1"/><stop offset="1" style="stop-color:rgb(232,96,89);stop-opacity:1"/></linearGradient>
        <linearGradient id="_Linear23" x1="0" y1="0" x2="1" y2="0" gradientUnits="userSpaceOnUse" gradientTransform="matrix(-75.7449,1166.47,-1166.47,-75.7449,1523.57,837.449)"><stop offset="0" style="stop-color:rgb(225,70,61);stop-opacity:1"/><stop offset="1" style="stop-color:rgb(232,96,89);stop-opacity:1"/></linearGradient>
    </defs>
</svg>
