<?xml version="1.0" encoding="UTF-8" standalone="no"?><!DOCTYPE svg PUBLIC "-//W3C//DTD SVG 1.1//EN" "http://www.w3.org/Graphics/SVG/1.1/DTD/svg11.dtd"><svg width="100%" height="100%" viewBox="0 0 206 60" version="1.1" xmlns="http://www.w3.org/2000/svg" xmlns:xlink="http://www.w3.org/1999/xlink" xml:space="preserve" xmlns:serif="http://www.serif.com/" style="fill-rule:evenodd;clip-rule:evenodd;stroke-linejoin:round;stroke-miterlimit:2;"><g><path d="M49.71,39.922c-0.53,0.28 -1.08,0.53 -1.65,0.75c-1.79,0.68 -3.69,1.03 -5.61,1.03c-7.39,-0 -13.83,-5.17 -13.83,-11.8c0.02,-1.81 1,-3.47 2.57,-4.34c-6.68,0.29 -8.4,7.37 -8.4,11.51c0,11.73 10.63,12.92 12.92,12.92c1.24,-0 3.1,-0.37 4.22,-0.72l0.2,-0.07c4.3,-1.51 7.97,-4.47 10.4,-8.38c0.18,-0.3 0.1,-0.69 -0.19,-0.88c-0.19,-0.13 -0.43,-0.13 -0.63,-0.02Z" style="fill:url(#_Linear1);fill-rule:nonzero;"/><path d="M49.71,39.922c-0.53,0.28 -1.08,0.53 -1.65,0.75c-1.79,0.68 -3.69,1.03 -5.61,1.03c-7.39,-0 -13.83,-5.17 -13.83,-11.8c0.02,-1.81 1,-3.47 2.57,-4.34c-6.68,0.29 -8.4,7.37 -8.4,11.51c0,11.73 10.63,12.92 12.92,12.92c1.24,-0 3.1,-0.37 4.22,-0.72l0.2,-0.07c4.3,-1.51 7.97,-4.47 10.4,-8.38c0.18,-0.3 0.1,-0.69 -0.19,-0.88c-0.19,-0.13 -0.43,-0.13 -0.63,-0.02Z" style="fill:url(#_Radial2);fill-rule:nonzero;"/><path d="M30.14,48.002c-1.39,-0.88 -2.6,-2.03 -3.55,-3.39c-4.1,-5.72 -2.87,-13.73 2.75,-17.9c0.59,-0.44 1.21,-0.82 1.86,-1.14c0.49,-0.23 1.32,-0.66 2.43,-0.63c1.58,0.01 3.07,0.78 4.01,2.06c0.63,0.86 0.98,1.89 0.99,2.96c0,-0.03 3.82,-12.64 -12.49,-12.64c-6.86,-0 -12.49,6.61 -12.49,12.42c-0.03,3.07 0.62,6.11 1.89,8.89c4.3,9.33 14.8,13.91 24.42,10.65c-3.29,1.06 -6.88,0.59 -9.8,-1.27l-0.02,-0.01Z" style="fill:url(#_Linear3);fill-rule:nonzero;"/><path d="M30.14,48.002c-1.39,-0.88 -2.6,-2.03 -3.55,-3.39c-4.1,-5.72 -2.87,-13.73 2.75,-17.9c0.59,-0.44 1.21,-0.82 1.86,-1.14c0.49,-0.23 1.32,-0.66 2.43,-0.63c1.58,0.01 3.07,0.78 4.01,2.06c0.63,0.86 0.98,1.89 0.99,2.96c0,-0.03 3.82,-12.64 -12.49,-12.64c-6.86,-0 -12.49,6.61 -12.49,12.42c-0.03,3.07 0.62,6.11 1.89,8.89c4.3,9.33 14.8,13.91 24.42,10.65c-3.29,1.06 -6.88,0.59 -9.8,-1.27l-0.02,-0.01Z" style="fill:url(#_Radial4);fill-rule:nonzero;"/><path d="M37.41,33.302c-0.13,0.17 -0.52,0.4 -0.52,0.9c-0,0.41 0.27,0.81 0.74,1.15c2.25,1.59 6.48,1.38 6.49,1.38c1.66,-0 3.3,-0.46 4.73,-1.33c2.94,-1.74 4.75,-4.94 4.75,-8.39c0.04,-3.56 -1.25,-5.92 -1.77,-6.97c-3.31,-6.58 -10.45,-10.37 -18.22,-10.37c-10.93,-0 -19.84,8.92 -19.99,20.03c0.07,-5.8 5.75,-10.49 12.49,-10.49c0.55,-0 3.66,0.05 6.56,1.6c2.55,1.36 3.89,3.01 4.82,4.64c0.97,1.69 1.14,3.83 1.14,4.69c-0,0.86 -0.43,2.12 -1.22,3.16Z" style="fill:url(#_Radial5);fill-rule:nonzero;"/><path d="M37.41,33.302c-0.13,0.17 -0.52,0.4 -0.52,0.9c-0,0.41 0.27,0.81 0.74,1.15c2.25,1.59 6.48,1.38 6.49,1.38c1.66,-0 3.3,-0.46 4.73,-1.33c2.94,-1.74 4.75,-4.94 4.75,-8.39c0.04,-3.56 -1.25,-5.92 -1.77,-6.97c-3.31,-6.58 -10.45,-10.37 -18.22,-10.37c-10.93,-0 -19.84,8.92 -19.99,20.03c0.07,-5.8 5.75,-10.49 12.49,-10.49c0.55,-0 3.66,0.05 6.56,1.6c2.55,1.36 3.89,3.01 4.82,4.64c0.97,1.69 1.14,3.83 1.14,4.69c-0,0.86 -0.43,2.12 -1.22,3.16Z" style="fill:url(#_Radial6);fill-rule:nonzero;"/><g><path d="M75.726,25.836c-0.519,0.186 -1.545,0.493 -2.757,0.493c-1.359,-0 -2.478,-0.347 -3.357,-1.186c-0.772,-0.746 -1.252,-1.945 -1.252,-3.343c0.013,-2.678 1.852,-4.636 4.862,-4.636c1.039,0 1.851,0.227 2.238,0.413l-0.28,0.946c-0.48,-0.213 -1.079,-0.386 -1.985,-0.386c-2.184,-0 -3.61,1.358 -3.61,3.609c0,2.278 1.372,3.624 3.464,3.624c0.759,-0 1.279,-0.107 1.545,-0.24l-0,-2.678l-1.825,0l0,-0.932l2.957,-0l0,4.316Z" style="fill:#343434;fill-rule:nonzero;"/><path d="M78.177,23.225c0.027,1.585 1.039,2.238 2.211,2.238c0.839,-0 1.346,-0.147 1.785,-0.333l0.2,0.839c-0.413,0.186 -1.119,0.4 -2.145,0.4c-1.984,-0 -3.17,-1.306 -3.17,-3.251c0,-1.944 1.146,-3.476 3.024,-3.476c2.105,-0 2.664,1.851 2.664,3.037c0,0.24 -0.027,0.426 -0.04,0.546l-4.529,-0Zm3.437,-0.839c0.013,-0.746 -0.307,-1.905 -1.625,-1.905c-1.186,-0 -1.705,1.092 -1.799,1.905l3.424,-0Z" style="fill:#343434;fill-rule:nonzero;"/><path d="M85.61,17.937l-0,1.851l1.678,0l0,0.893l-1.678,-0l-0,3.476c-0,0.8 0.226,1.252 0.879,1.252c0.306,0 0.533,-0.039 0.679,-0.079l0.054,0.879c-0.227,0.093 -0.586,0.16 -1.039,0.16c-0.546,-0 -0.986,-0.174 -1.266,-0.493c-0.333,-0.347 -0.453,-0.919 -0.453,-1.679l0,-3.516l-0.999,-0l0,-0.893l0.999,0l0,-1.545l1.146,-0.306Z" style="fill:#343434;fill-rule:nonzero;"/><path d="M92.736,17.977c0.014,0.399 -0.279,0.719 -0.746,0.719c-0.413,-0 -0.706,-0.32 -0.706,-0.719c0,-0.413 0.307,-0.733 0.733,-0.733c0.44,0 0.719,0.32 0.719,0.733Zm-1.305,8.258l-0,-6.447l1.172,0l0,6.447l-1.172,0Z" style="fill:#343434;fill-rule:nonzero;"/><path d="M95.96,17.937l-0,1.851l1.678,0l0,0.893l-1.678,-0l-0,3.476c-0,0.8 0.226,1.252 0.879,1.252c0.306,0 0.533,-0.039 0.679,-0.079l0.054,0.879c-0.227,0.093 -0.587,0.16 -1.039,0.16c-0.547,-0 -0.986,-0.174 -1.266,-0.493c-0.333,-0.347 -0.453,-0.919 -0.453,-1.679l0,-3.516l-0.999,-0l0,-0.893l0.999,0l0,-1.545l1.146,-0.306Z" style="fill:#343434;fill-rule:nonzero;"/><path d="M101.901,26.235l-0,-5.554l-0.906,-0l-0,-0.893l0.906,0l-0,-0.306c-0,-0.906 0.2,-1.732 0.746,-2.251c0.439,-0.427 1.025,-0.6 1.571,-0.6c0.413,0 0.773,0.094 0.999,0.187l-0.159,0.906c-0.174,-0.08 -0.413,-0.147 -0.746,-0.147c-0.999,0 -1.252,0.879 -1.252,1.865l-0,0.346l1.558,0l0,0.893l-1.558,-0l-0,5.554l-1.159,0Z" style="fill:#343434;fill-rule:nonzero;"/><path d="M111.332,22.959c-0,2.384 -1.652,3.423 -3.211,3.423c-1.745,-0 -3.09,-1.279 -3.09,-3.317c-0,-2.158 1.412,-3.423 3.197,-3.423c1.851,-0 3.104,1.345 3.104,3.317Zm-5.115,0.066c-0,1.412 0.812,2.478 1.958,2.478c1.119,-0 1.958,-1.053 1.958,-2.505c-0,-1.092 -0.546,-2.477 -1.932,-2.477c-1.385,-0 -1.984,1.279 -1.984,2.504Z" style="fill:#343434;fill-rule:nonzero;"/><path d="M112.81,21.8c0,-0.76 -0.013,-1.412 -0.053,-2.012l1.025,0l0.04,1.266l0.054,-0c0.293,-0.866 0.999,-1.412 1.785,-1.412c0.133,-0 0.226,0.013 0.333,0.04l-0,1.105c-0.12,-0.026 -0.24,-0.04 -0.4,-0.04c-0.826,0 -1.412,0.626 -1.572,1.506c-0.026,0.159 -0.053,0.346 -0.053,0.546l-0,3.436l-1.159,0l0,-4.435Z" style="fill:#343434;fill-rule:nonzero;"/></g><g><path d="M79.303,38.289c-0.089,-1.684 -0.197,-3.71 -0.179,-5.215l-0.054,-0c-0.412,1.416 -0.914,2.921 -1.523,4.588l-2.133,5.861l-1.183,-0l-1.954,-5.753c-0.573,-1.703 -1.057,-3.263 -1.398,-4.696l-0.036,-0c-0.036,1.505 -0.125,3.531 -0.233,5.341l-0.322,5.18l-1.488,-0l0.842,-12.081l1.99,0l2.061,5.843c0.502,1.488 0.914,2.814 1.219,4.069l0.054,-0c0.304,-1.219 0.735,-2.545 1.272,-4.069l2.151,-5.843l1.99,0l0.752,12.081l-1.523,-0l-0.305,-5.306Z" style="fill:#343434;fill-rule:nonzero;"/><path d="M85.451,32.482c0.018,0.538 -0.377,0.968 -1.004,0.968c-0.555,-0 -0.95,-0.43 -0.95,-0.968c0,-0.556 0.412,-0.986 0.986,-0.986c0.591,0 0.968,0.43 0.968,0.986Zm-1.757,11.113l0,-8.675l1.578,-0l-0,8.675l-1.578,-0Z" style="fill:#343434;fill-rule:nonzero;"/><path d="M94.072,43.272c-0.412,0.215 -1.326,0.502 -2.491,0.502c-2.617,-0 -4.32,-1.775 -4.32,-4.427c0,-2.671 1.828,-4.607 4.66,-4.607c0.932,0 1.757,0.233 2.187,0.449l-0.359,1.218c-0.376,-0.215 -0.967,-0.412 -1.828,-0.412c-1.989,0 -3.065,1.47 -3.065,3.28c0,2.008 1.291,3.244 3.011,3.244c0.897,0 1.488,-0.233 1.936,-0.43l0.269,1.183Z" style="fill:#343434;fill-rule:nonzero;"/><path d="M95.918,37.626c0,-1.021 -0.018,-1.9 -0.072,-2.706l1.381,-0l0.053,1.702l0.072,0c0.394,-1.165 1.344,-1.899 2.402,-1.899c0.179,-0 0.305,0.017 0.448,0.053l-0,1.488c-0.161,-0.036 -0.323,-0.054 -0.538,-0.054c-1.111,0 -1.9,0.843 -2.115,2.026c-0.036,0.215 -0.071,0.466 -0.071,0.734l-0,4.625l-1.56,-0l0,-5.969Z" style="fill:#343434;fill-rule:nonzero;"/><path d="M109.45,39.185c0,3.209 -2.222,4.607 -4.319,4.607c-2.348,-0 -4.158,-1.721 -4.158,-4.463c-0,-2.904 1.899,-4.606 4.301,-4.606c2.492,-0 4.176,1.81 4.176,4.462Zm-6.882,0.09c-0,1.9 1.093,3.334 2.635,3.334c1.505,-0 2.634,-1.416 2.634,-3.37c0,-1.469 -0.735,-3.334 -2.599,-3.334c-1.864,0 -2.67,1.721 -2.67,3.37Z" style="fill:#343434;fill-rule:nonzero;"/><path d="M111.225,41.982c0.466,0.304 1.29,0.627 2.079,0.627c1.147,-0 1.685,-0.574 1.685,-1.291c-0,-0.752 -0.448,-1.165 -1.613,-1.595c-1.56,-0.555 -2.295,-1.416 -2.295,-2.455c0,-1.398 1.13,-2.545 2.994,-2.545c0.878,-0 1.649,0.25 2.133,0.537l-0.395,1.147c-0.34,-0.215 -0.968,-0.502 -1.774,-0.502c-0.932,0 -1.452,0.538 -1.452,1.183c0,0.717 0.52,1.04 1.649,1.47c1.506,0.574 2.276,1.327 2.276,2.617c0,1.523 -1.183,2.599 -3.244,2.599c-0.95,-0 -1.828,-0.233 -2.437,-0.592l0.394,-1.2Z" style="fill:#343434;fill-rule:nonzero;"/><path d="M126.388,39.185c0,3.209 -2.222,4.607 -4.319,4.607c-2.348,-0 -4.159,-1.721 -4.159,-4.463c0,-2.904 1.9,-4.606 4.302,-4.606c2.491,-0 4.176,1.81 4.176,4.462Zm-6.883,0.09c0,1.9 1.094,3.334 2.635,3.334c1.506,-0 2.635,-1.416 2.635,-3.37c-0,-1.469 -0.735,-3.334 -2.599,-3.334c-1.864,0 -2.671,1.721 -2.671,3.37Z" style="fill:#343434;fill-rule:nonzero;"/><path d="M128.539,43.595l-0,-7.474l-1.219,-0l0,-1.201l1.219,-0l-0,-0.413c-0,-1.218 0.269,-2.33 1.004,-3.029c0.591,-0.573 1.38,-0.806 2.115,-0.806c0.555,-0 1.039,0.125 1.344,0.251l-0.215,1.219c-0.233,-0.108 -0.556,-0.198 -1.004,-0.198c-1.344,0 -1.685,1.183 -1.685,2.51l0,0.466l2.097,-0l0,1.201l-2.097,-0l0,7.474l-1.559,-0Z" style="fill:#343434;fill-rule:nonzero;"/><path d="M135.708,32.428l0,2.492l2.259,-0l-0,1.201l-2.259,-0l0,4.678c0,1.075 0.305,1.684 1.183,1.684c0.412,0 0.717,-0.053 0.914,-0.107l0.072,1.183c-0.305,0.125 -0.789,0.215 -1.398,0.215c-0.735,-0 -1.326,-0.233 -1.703,-0.663c-0.448,-0.466 -0.609,-1.237 -0.609,-2.259l-0,-4.731l-1.344,-0l-0,-1.201l1.344,-0l-0,-2.079l1.541,-0.413Z" style="fill:#343434;fill-rule:nonzero;"/><path d="M149.85,37.931l-4.696,-0l-0,4.355l5.234,0l-0,1.309l-6.793,-0l-0,-12.081l6.524,0l-0,1.309l-4.965,-0l-0,3.817l4.696,0l-0,1.291Z" style="fill:#343434;fill-rule:nonzero;"/><path d="M159.779,30.869l0,10.485c0,0.771 0.018,1.649 0.072,2.241l-1.416,-0l-0.071,-1.506l-0.036,0c-0.484,0.968 -1.542,1.703 -2.958,1.703c-2.097,-0 -3.71,-1.775 -3.71,-4.409c-0.018,-2.886 1.775,-4.66 3.89,-4.66c1.326,-0 2.222,0.627 2.616,1.326l0.036,-0l0,-5.18l1.577,0Zm-1.577,7.582c0,-0.198 -0.018,-0.466 -0.071,-0.664c-0.234,-1.003 -1.094,-1.828 -2.277,-1.828c-1.631,0 -2.599,1.434 -2.599,3.352c0,1.756 0.861,3.208 2.563,3.208c1.058,0 2.026,-0.699 2.313,-1.882c0.053,-0.215 0.071,-0.43 0.071,-0.681l0,-1.505Z" style="fill:#343434;fill-rule:nonzero;"/><path d="M169.87,34.92c-0.035,0.627 -0.071,1.326 -0.071,2.384l-0,5.036c-0,1.99 -0.395,3.208 -1.237,3.961c-0.842,0.789 -2.061,1.04 -3.155,1.04c-1.039,-0 -2.186,-0.251 -2.885,-0.717l0.394,-1.201c0.574,0.358 1.47,0.681 2.545,0.681c1.613,-0 2.796,-0.842 2.796,-3.029l0,-0.968l-0.036,0c-0.484,0.807 -1.416,1.452 -2.76,1.452c-2.151,-0 -3.692,-1.828 -3.692,-4.23c-0,-2.94 1.918,-4.606 3.907,-4.606c1.506,-0 2.33,0.788 2.707,1.505l0.036,0l0.071,-1.308l1.38,-0Zm-1.631,3.423c0,-0.269 -0.018,-0.502 -0.089,-0.717c-0.287,-0.914 -1.058,-1.667 -2.205,-1.667c-1.505,0 -2.581,1.273 -2.581,3.28c0,1.703 0.86,3.119 2.563,3.119c0.968,-0 1.846,-0.609 2.187,-1.613c0.089,-0.269 0.125,-0.574 0.125,-0.843l0,-1.559Z" style="fill:#343434;fill-rule:nonzero;"/><path d="M173.294,39.544c0.036,2.133 1.398,3.011 2.975,3.011c1.129,0 1.81,-0.197 2.402,-0.448l0.269,1.129c-0.556,0.251 -1.506,0.538 -2.886,0.538c-2.671,-0 -4.266,-1.757 -4.266,-4.373c0,-2.617 1.542,-4.678 4.069,-4.678c2.832,-0 3.584,2.491 3.584,4.086c0,0.323 -0.035,0.574 -0.053,0.735l-6.094,-0Zm4.624,-1.129c0.018,-1.004 -0.412,-2.563 -2.187,-2.563c-1.595,-0 -2.294,1.469 -2.419,2.563l4.606,-0Z" style="fill:#343434;fill-rule:nonzero;"/></g></g><defs><linearGradient id="_Linear1" x1="0" y1="0" x2="1" y2="0" gradientUnits="userSpaceOnUse" gradientTransform="matrix(27.8427,0,0,27.8427,22.7942,37.7755)"><stop offset="0" style="stop-color:#0c59a4;stop-opacity:1"/><stop offset="1" style="stop-color:#114a8b;stop-opacity:1"/></linearGradient><radialGradient id="_Radial2" cx="0" cy="0" r="1" gradientUnits="userSpaceOnUse" gradientTransform="matrix(14.8947,0,0,14.3838,38.1762,37.9946)"><stop offset="0" style="stop-color:#000;stop-opacity:0"/><stop offset="0.72" style="stop-color:#000;stop-opacity:0"/><stop offset="0.95" style="stop-color:#000;stop-opacity:0.19"/><stop offset="1" style="stop-color:#000;stop-opacity:0.35"/></radialGradient><linearGradient id="_Linear3" x1="0" y1="0" x2="1" y2="0" gradientUnits="userSpaceOnUse" gradientTransform="matrix(-17.5734,19.1416,-19.1416,-17.5734,37.5873,25.5573)"><stop offset="0" style="stop-color:#1b9de2;stop-opacity:1"/><stop offset="0.16" style="stop-color:#1595df;stop-opacity:1"/><stop offset="0.67" style="stop-color:#0680d7;stop-opacity:1"/><stop offset="1" style="stop-color:#0078d4;stop-opacity:1"/></linearGradient><radialGradient id="_Radial4" cx="0" cy="0" r="1" gradientUnits="userSpaceOnUse" gradientTransform="matrix(3.3553,-22.5119,17.895,2.72898,24.6486,41.2765)"><stop offset="0" style="stop-color:#000;stop-opacity:0"/><stop offset="0.76" style="stop-color:#000;stop-opacity:0"/><stop offset="0.95" style="stop-color:#000;stop-opacity:0.2"/><stop offset="1" style="stop-color:#000;stop-opacity:0.41"/></radialGradient><radialGradient id="_Radial5" cx="0" cy="0" r="1" gradientUnits="userSpaceOnUse" gradientTransform="matrix(-1.26448,32.1367,-67.3333,-2.57005,17.663,17.1921)"><stop offset="0" style="stop-color:#35c1f1;stop-opacity:1"/><stop offset="0.11" style="stop-color:#34c1ed;stop-opacity:1"/><stop offset="0.23" style="stop-color:#2fc2df;stop-opacity:1"/><stop offset="0.31" style="stop-color:#2bc3d2;stop-opacity:1"/><stop offset="0.67" style="stop-color:#36c752;stop-opacity:1"/><stop offset="1" style="stop-color:#36c752;stop-opacity:1"/></radialGradient><radialGradient id="_Radial6" cx="0" cy="0" r="1" gradientUnits="userSpaceOnUse" gradientTransform="matrix(4.25622,14.8345,-11.8566,3.55395,51.1146,21.9656)"><stop offset="0" style="stop-color:#66eb6e;stop-opacity:1"/><stop offset="1" style="stop-color:#66eb6e;stop-opacity:0"/></radialGradient></defs></svg>