<svg id="visual" viewBox="0 0 900 675" width="900" height="675" xmlns="http://www.w3.org/2000/svg" xmlns:xlink="http://www.w3.org/1999/xlink" version="1.1"><path d="M0 48L30 48C60 48 120 48 180 51.5C240 55 300 62 360 65.5C420 69 480 69 540 65.5C600 62 660 55 720 52.7C780 50.3 840 52.7 870 53.8L900 55L900 0L870 0C840 0 780 0 720 0C660 0 600 0 540 0C480 0 420 0 360 0C300 0 240 0 180 0C120 0 60 0 30 0L0 0Z" fill="#000428"></path><path d="M0 82L30 80.8C60 79.7 120 77.3 180 78.5C240 79.7 300 84.3 360 88.8C420 93.3 480 97.7 540 93.2C600 88.7 660 75.3 720 70.8C780 66.3 840 70.7 870 72.8L900 75L900 53L870 51.8C840 50.7 780 48.3 720 50.7C660 53 600 60 540 63.5C480 67 420 67 360 63.5C300 60 240 53 180 49.5C120 46 60 46 30 46L0 46Z" fill="#010a2d"></path><path d="M0 109L30 113.5C60 118 120 127 180 133.8C240 140.7 300 145.3 360 145.3C420 145.3 480 140.7 540 132.7C600 124.7 660 113.3 720 110C780 106.7 840 111.3 870 113.7L900 116L900 73L870 70.8C840 68.7 780 64.3 720 68.8C660 73.3 600 86.7 540 91.2C480 95.7 420 91.3 360 86.8C300 82.3 240 77.7 180 76.5C120 75.3 60 77.7 30 78.8L0 80Z" fill="#020f32"></path><path d="M0 136L30 140.5C60 145 120 154 180 161.8C240 169.7 300 176.3 360 174.2C420 172 480 161 540 151C600 141 660 132 720 128.5C780 125 840 127 870 128L900 129L900 114L870 111.7C840 109.3 780 104.7 720 108C660 111.3 600 122.7 540 130.7C480 138.7 420 143.3 360 143.3C300 143.3 240 138.7 180 131.8C120 125 60 116 30 111.5L0 107Z" fill="#011338"></path><path d="M0 224L30 228.5C60 233 120 242 180 245.3C240 248.7 300 246.3 360 250.8C420 255.3 480 266.7 540 264.5C600 262.3 660 246.7 720 236.5C780 226.3 840 221.7 870 219.3L900 217L900 127L870 126C840 125 780 123 720 126.5C660 130 600 139 540 149C480 159 420 170 360 172.2C300 174.3 240 167.7 180 159.8C120 152 60 143 30 138.5L0 134Z" fill="#01163d"></path><path d="M0 258L30 261.3C60 264.7 120 271.3 180 272.3C240 273.3 300 268.7 360 275.3C420 282 480 300 540 299C600 298 660 278 720 268C780 258 840 258 870 258L900 258L900 215L870 217.3C840 219.7 780 224.3 720 234.5C660 244.7 600 260.3 540 262.5C480 264.7 420 253.3 360 248.8C300 244.3 240 246.7 180 243.3C120 240 60 231 30 226.5L0 222Z" fill="#011943"></path><path d="M0 359L30 360.2C60 361.3 120 363.7 180 363.7C240 363.7 300 361.3 360 365.8C420 370.3 480 381.7 540 373.8C600 366 660 339 720 331C780 323 840 334 870 339.5L900 345L900 256L870 256C840 256 780 256 720 266C660 276 600 296 540 297C480 298 420 280 360 273.3C300 266.7 240 271.3 180 270.3C120 269.3 60 262.7 30 259.3L0 256Z" fill="#011c49"></path><path d="M0 393L30 396.3C60 399.7 120 406.3 180 407.3C240 408.3 300 403.7 360 403.7C420 403.7 480 408.3 540 401.7C600 395 660 377 720 371.3C780 365.7 840 372.3 870 375.7L900 379L900 343L870 337.5C840 332 780 321 720 329C660 337 600 364 540 371.8C480 379.7 420 368.3 360 363.8C300 359.3 240 361.7 180 361.7C120 361.7 60 359.3 30 358.2L0 357Z" fill="#01204f"></path><path d="M0 514L30 523C60 532 120 550 180 554.5C240 559 300 550 360 545.5C420 541 480 541 540 542.2C600 543.3 660 545.7 720 545.7C780 545.7 840 543.3 870 542.2L900 541L900 377L870 373.7C840 370.3 780 363.7 720 369.3C660 375 600 393 540 399.7C480 406.3 420 401.7 360 401.7C300 401.7 240 406.3 180 405.3C120 404.3 60 397.7 30 394.3L0 391Z" fill="#012355"></path><path d="M0 555L30 560.5C60 566 120 577 180 579.2C240 581.3 300 574.7 360 572.5C420 570.3 480 572.7 540 575C600 577.3 660 579.7 720 579.7C780 579.7 840 577.3 870 576.2L900 575L900 539L870 540.2C840 541.3 780 543.7 720 543.7C660 543.7 600 541.3 540 540.2C480 539 420 539 360 543.5C300 548 240 557 180 552.5C120 548 60 530 30 521L0 512Z" fill="#01265b"></path><path d="M0 595L30 599.5C60 604 120 613 180 616.3C240 619.7 300 617.3 360 617.3C420 617.3 480 619.7 540 620.8C600 622 660 622 720 619.8C780 617.7 840 613.3 870 611.2L900 609L900 573L870 574.2C840 575.3 780 577.7 720 577.7C660 577.7 600 575.3 540 573C480 570.7 420 568.3 360 570.5C300 572.7 240 579.3 180 577.2C120 575 60 564 30 558.5L0 553Z" fill="#002961"></path><path d="M0 676L30 676C60 676 120 676 180 676C240 676 300 676 360 676C420 676 480 676 540 676C600 676 660 676 720 676C780 676 840 676 870 676L900 676L900 607L870 609.2C840 611.3 780 615.7 720 617.8C660 620 600 620 540 618.8C480 617.7 420 615.3 360 615.3C300 615.3 240 617.7 180 614.3C120 611 60 602 30 597.5L0 593Z" fill="#002c67"></path></svg>